G04 #@! TF.GenerationSoftware,KiCad,Pcbnew,8.0.8*
G04 #@! TF.CreationDate,2025-05-07T21:48:01+01:00*
G04 #@! TF.ProjectId,RPi-flex_PCB02,5250692d-666c-4657-985f-50434230322e,rev?*
G04 #@! TF.SameCoordinates,Original*
G04 #@! TF.FileFunction,Legend,Bot*
G04 #@! TF.FilePolarity,Positive*
%FSLAX46Y46*%
G04 Gerber Fmt 4.6, Leading zero omitted, Abs format (unit mm)*
G04 Created by KiCad (PCBNEW 8.0.8) date 2025-05-07 21:48:01*
%MOMM*%
%LPD*%
G01*
G04 APERTURE LIST*
G04 Aperture macros list*
%AMRoundRect*
0 Rectangle with rounded corners*
0 $1 Rounding radius*
0 $2 $3 $4 $5 $6 $7 $8 $9 X,Y pos of 4 corners*
0 Add a 4 corners polygon primitive as box body*
4,1,4,$2,$3,$4,$5,$6,$7,$8,$9,$2,$3,0*
0 Add four circle primitives for the rounded corners*
1,1,$1+$1,$2,$3*
1,1,$1+$1,$4,$5*
1,1,$1+$1,$6,$7*
1,1,$1+$1,$8,$9*
0 Add four rect primitives between the rounded corners*
20,1,$1+$1,$2,$3,$4,$5,0*
20,1,$1+$1,$4,$5,$6,$7,0*
20,1,$1+$1,$6,$7,$8,$9,0*
20,1,$1+$1,$8,$9,$2,$3,0*%
G04 Aperture macros list end*
%ADD10C,0.250000*%
%ADD11C,0.300000*%
%ADD12C,0.120000*%
%ADD13R,1.600000X1.600000*%
%ADD14C,1.600000*%
%ADD15R,1.700000X1.700000*%
%ADD16O,1.700000X1.700000*%
%ADD17RoundRect,0.250000X0.750000X-0.600000X0.750000X0.600000X-0.750000X0.600000X-0.750000X-0.600000X0*%
%ADD18O,2.000000X1.700000*%
%ADD19O,1.600000X1.600000*%
%ADD20R,0.840000X0.840000*%
%ADD21C,0.840000*%
%ADD22O,0.850000X1.850000*%
%ADD23C,2.200000*%
%ADD24R,1.800000X1.800000*%
%ADD25C,1.800000*%
G04 APERTURE END LIST*
D10*
X114704000Y-97333527D02*
X114646857Y-97447812D01*
X114646857Y-97447812D02*
X114646857Y-97676384D01*
X114646857Y-97676384D02*
X114704000Y-97790669D01*
X114704000Y-97790669D02*
X114761142Y-97847812D01*
X114761142Y-97847812D02*
X114875428Y-97904955D01*
X114875428Y-97904955D02*
X115218285Y-97904955D01*
X115218285Y-97904955D02*
X115332571Y-97847812D01*
X115332571Y-97847812D02*
X115389714Y-97790669D01*
X115389714Y-97790669D02*
X115446857Y-97676384D01*
X115446857Y-97676384D02*
X115446857Y-97447812D01*
X115446857Y-97447812D02*
X115389714Y-97333527D01*
X114646857Y-96647813D02*
X114704000Y-96762098D01*
X114704000Y-96762098D02*
X114761142Y-96819241D01*
X114761142Y-96819241D02*
X114875428Y-96876384D01*
X114875428Y-96876384D02*
X115218285Y-96876384D01*
X115218285Y-96876384D02*
X115332571Y-96819241D01*
X115332571Y-96819241D02*
X115389714Y-96762098D01*
X115389714Y-96762098D02*
X115446857Y-96647813D01*
X115446857Y-96647813D02*
X115446857Y-96476384D01*
X115446857Y-96476384D02*
X115389714Y-96362098D01*
X115389714Y-96362098D02*
X115332571Y-96304956D01*
X115332571Y-96304956D02*
X115218285Y-96247813D01*
X115218285Y-96247813D02*
X114875428Y-96247813D01*
X114875428Y-96247813D02*
X114761142Y-96304956D01*
X114761142Y-96304956D02*
X114704000Y-96362098D01*
X114704000Y-96362098D02*
X114646857Y-96476384D01*
X114646857Y-96476384D02*
X114646857Y-96647813D01*
X115446857Y-95733527D02*
X114246857Y-95733527D01*
X115389714Y-95733527D02*
X115446857Y-95619242D01*
X115446857Y-95619242D02*
X115446857Y-95390670D01*
X115446857Y-95390670D02*
X115389714Y-95276384D01*
X115389714Y-95276384D02*
X115332571Y-95219242D01*
X115332571Y-95219242D02*
X115218285Y-95162099D01*
X115218285Y-95162099D02*
X114875428Y-95162099D01*
X114875428Y-95162099D02*
X114761142Y-95219242D01*
X114761142Y-95219242D02*
X114704000Y-95276384D01*
X114704000Y-95276384D02*
X114646857Y-95390670D01*
X114646857Y-95390670D02*
X114646857Y-95619242D01*
X114646857Y-95619242D02*
X114704000Y-95733527D01*
X115446857Y-94762099D02*
X114646857Y-94476385D01*
X115446857Y-94190670D02*
X114646857Y-94476385D01*
X114646857Y-94476385D02*
X114361142Y-94590670D01*
X114361142Y-94590670D02*
X114304000Y-94647813D01*
X114304000Y-94647813D02*
X114246857Y-94762099D01*
X114646857Y-93733527D02*
X115446857Y-93733527D01*
X115218285Y-93733527D02*
X115332571Y-93676384D01*
X115332571Y-93676384D02*
X115389714Y-93619242D01*
X115389714Y-93619242D02*
X115446857Y-93504956D01*
X115446857Y-93504956D02*
X115446857Y-93390670D01*
X114646857Y-92990670D02*
X115446857Y-92990670D01*
X115846857Y-92990670D02*
X115789714Y-93047813D01*
X115789714Y-93047813D02*
X115732571Y-92990670D01*
X115732571Y-92990670D02*
X115789714Y-92933527D01*
X115789714Y-92933527D02*
X115846857Y-92990670D01*
X115846857Y-92990670D02*
X115732571Y-92990670D01*
X115446857Y-91904956D02*
X114475428Y-91904956D01*
X114475428Y-91904956D02*
X114361142Y-91962098D01*
X114361142Y-91962098D02*
X114304000Y-92019241D01*
X114304000Y-92019241D02*
X114246857Y-92133527D01*
X114246857Y-92133527D02*
X114246857Y-92304956D01*
X114246857Y-92304956D02*
X114304000Y-92419241D01*
X114704000Y-91904956D02*
X114646857Y-92019241D01*
X114646857Y-92019241D02*
X114646857Y-92247813D01*
X114646857Y-92247813D02*
X114704000Y-92362098D01*
X114704000Y-92362098D02*
X114761142Y-92419241D01*
X114761142Y-92419241D02*
X114875428Y-92476384D01*
X114875428Y-92476384D02*
X115218285Y-92476384D01*
X115218285Y-92476384D02*
X115332571Y-92419241D01*
X115332571Y-92419241D02*
X115389714Y-92362098D01*
X115389714Y-92362098D02*
X115446857Y-92247813D01*
X115446857Y-92247813D02*
X115446857Y-92019241D01*
X115446857Y-92019241D02*
X115389714Y-91904956D01*
X114646857Y-91333527D02*
X115846857Y-91333527D01*
X114646857Y-90819242D02*
X115275428Y-90819242D01*
X115275428Y-90819242D02*
X115389714Y-90876384D01*
X115389714Y-90876384D02*
X115446857Y-90990670D01*
X115446857Y-90990670D02*
X115446857Y-91162099D01*
X115446857Y-91162099D02*
X115389714Y-91276384D01*
X115389714Y-91276384D02*
X115332571Y-91333527D01*
X115446857Y-90419242D02*
X115446857Y-89962099D01*
X115846857Y-90247813D02*
X114818285Y-90247813D01*
X114818285Y-90247813D02*
X114704000Y-90190670D01*
X114704000Y-90190670D02*
X114646857Y-90076385D01*
X114646857Y-90076385D02*
X114646857Y-89962099D01*
X115732571Y-87790670D02*
X115789714Y-87733527D01*
X115789714Y-87733527D02*
X115846857Y-87619242D01*
X115846857Y-87619242D02*
X115846857Y-87333527D01*
X115846857Y-87333527D02*
X115789714Y-87219242D01*
X115789714Y-87219242D02*
X115732571Y-87162099D01*
X115732571Y-87162099D02*
X115618285Y-87104956D01*
X115618285Y-87104956D02*
X115504000Y-87104956D01*
X115504000Y-87104956D02*
X115332571Y-87162099D01*
X115332571Y-87162099D02*
X114646857Y-87847813D01*
X114646857Y-87847813D02*
X114646857Y-87104956D01*
X115846857Y-86362099D02*
X115846857Y-86247813D01*
X115846857Y-86247813D02*
X115789714Y-86133527D01*
X115789714Y-86133527D02*
X115732571Y-86076385D01*
X115732571Y-86076385D02*
X115618285Y-86019242D01*
X115618285Y-86019242D02*
X115389714Y-85962099D01*
X115389714Y-85962099D02*
X115104000Y-85962099D01*
X115104000Y-85962099D02*
X114875428Y-86019242D01*
X114875428Y-86019242D02*
X114761142Y-86076385D01*
X114761142Y-86076385D02*
X114704000Y-86133527D01*
X114704000Y-86133527D02*
X114646857Y-86247813D01*
X114646857Y-86247813D02*
X114646857Y-86362099D01*
X114646857Y-86362099D02*
X114704000Y-86476385D01*
X114704000Y-86476385D02*
X114761142Y-86533527D01*
X114761142Y-86533527D02*
X114875428Y-86590670D01*
X114875428Y-86590670D02*
X115104000Y-86647813D01*
X115104000Y-86647813D02*
X115389714Y-86647813D01*
X115389714Y-86647813D02*
X115618285Y-86590670D01*
X115618285Y-86590670D02*
X115732571Y-86533527D01*
X115732571Y-86533527D02*
X115789714Y-86476385D01*
X115789714Y-86476385D02*
X115846857Y-86362099D01*
X115732571Y-85504956D02*
X115789714Y-85447813D01*
X115789714Y-85447813D02*
X115846857Y-85333528D01*
X115846857Y-85333528D02*
X115846857Y-85047813D01*
X115846857Y-85047813D02*
X115789714Y-84933528D01*
X115789714Y-84933528D02*
X115732571Y-84876385D01*
X115732571Y-84876385D02*
X115618285Y-84819242D01*
X115618285Y-84819242D02*
X115504000Y-84819242D01*
X115504000Y-84819242D02*
X115332571Y-84876385D01*
X115332571Y-84876385D02*
X114646857Y-85562099D01*
X114646857Y-85562099D02*
X114646857Y-84819242D01*
X115446857Y-83790671D02*
X114646857Y-83790671D01*
X115904000Y-84076385D02*
X115046857Y-84362099D01*
X115046857Y-84362099D02*
X115046857Y-83619242D01*
D11*
X116242409Y-126523393D02*
X117004314Y-127056727D01*
X116242409Y-127437679D02*
X117842409Y-127437679D01*
X117842409Y-127437679D02*
X117842409Y-126828155D01*
X117842409Y-126828155D02*
X117766219Y-126675774D01*
X117766219Y-126675774D02*
X117690028Y-126599584D01*
X117690028Y-126599584D02*
X117537647Y-126523393D01*
X117537647Y-126523393D02*
X117309076Y-126523393D01*
X117309076Y-126523393D02*
X117156695Y-126599584D01*
X117156695Y-126599584D02*
X117080504Y-126675774D01*
X117080504Y-126675774D02*
X117004314Y-126828155D01*
X117004314Y-126828155D02*
X117004314Y-127437679D01*
X116242409Y-125837679D02*
X117842409Y-125837679D01*
X117842409Y-125837679D02*
X117842409Y-125228155D01*
X117842409Y-125228155D02*
X117766219Y-125075774D01*
X117766219Y-125075774D02*
X117690028Y-124999584D01*
X117690028Y-124999584D02*
X117537647Y-124923393D01*
X117537647Y-124923393D02*
X117309076Y-124923393D01*
X117309076Y-124923393D02*
X117156695Y-124999584D01*
X117156695Y-124999584D02*
X117080504Y-125075774D01*
X117080504Y-125075774D02*
X117004314Y-125228155D01*
X117004314Y-125228155D02*
X117004314Y-125837679D01*
X116242409Y-124237679D02*
X117309076Y-124237679D01*
X117842409Y-124237679D02*
X117766219Y-124313870D01*
X117766219Y-124313870D02*
X117690028Y-124237679D01*
X117690028Y-124237679D02*
X117766219Y-124161489D01*
X117766219Y-124161489D02*
X117842409Y-124237679D01*
X117842409Y-124237679D02*
X117690028Y-124237679D01*
X116851933Y-123475774D02*
X116851933Y-122256727D01*
X117309076Y-121723394D02*
X117309076Y-121113870D01*
X116242409Y-121494822D02*
X117613838Y-121494822D01*
X117613838Y-121494822D02*
X117766219Y-121418632D01*
X117766219Y-121418632D02*
X117842409Y-121266251D01*
X117842409Y-121266251D02*
X117842409Y-121113870D01*
X116242409Y-120351965D02*
X116318600Y-120504346D01*
X116318600Y-120504346D02*
X116470980Y-120580536D01*
X116470980Y-120580536D02*
X117842409Y-120580536D01*
X116318600Y-119132917D02*
X116242409Y-119285298D01*
X116242409Y-119285298D02*
X116242409Y-119590060D01*
X116242409Y-119590060D02*
X116318600Y-119742441D01*
X116318600Y-119742441D02*
X116470980Y-119818632D01*
X116470980Y-119818632D02*
X117080504Y-119818632D01*
X117080504Y-119818632D02*
X117232885Y-119742441D01*
X117232885Y-119742441D02*
X117309076Y-119590060D01*
X117309076Y-119590060D02*
X117309076Y-119285298D01*
X117309076Y-119285298D02*
X117232885Y-119132917D01*
X117232885Y-119132917D02*
X117080504Y-119056727D01*
X117080504Y-119056727D02*
X116928123Y-119056727D01*
X116928123Y-119056727D02*
X116775742Y-119818632D01*
X116242409Y-118523393D02*
X117309076Y-117685298D01*
X117309076Y-118523393D02*
X116242409Y-117685298D01*
X116242409Y-115856726D02*
X117842409Y-115856726D01*
X117842409Y-115856726D02*
X117842409Y-115247202D01*
X117842409Y-115247202D02*
X117766219Y-115094821D01*
X117766219Y-115094821D02*
X117690028Y-115018631D01*
X117690028Y-115018631D02*
X117537647Y-114942440D01*
X117537647Y-114942440D02*
X117309076Y-114942440D01*
X117309076Y-114942440D02*
X117156695Y-115018631D01*
X117156695Y-115018631D02*
X117080504Y-115094821D01*
X117080504Y-115094821D02*
X117004314Y-115247202D01*
X117004314Y-115247202D02*
X117004314Y-115856726D01*
X116394790Y-113342440D02*
X116318600Y-113418631D01*
X116318600Y-113418631D02*
X116242409Y-113647202D01*
X116242409Y-113647202D02*
X116242409Y-113799583D01*
X116242409Y-113799583D02*
X116318600Y-114028155D01*
X116318600Y-114028155D02*
X116470980Y-114180536D01*
X116470980Y-114180536D02*
X116623361Y-114256726D01*
X116623361Y-114256726D02*
X116928123Y-114332917D01*
X116928123Y-114332917D02*
X117156695Y-114332917D01*
X117156695Y-114332917D02*
X117461457Y-114256726D01*
X117461457Y-114256726D02*
X117613838Y-114180536D01*
X117613838Y-114180536D02*
X117766219Y-114028155D01*
X117766219Y-114028155D02*
X117842409Y-113799583D01*
X117842409Y-113799583D02*
X117842409Y-113647202D01*
X117842409Y-113647202D02*
X117766219Y-113418631D01*
X117766219Y-113418631D02*
X117690028Y-113342440D01*
X117080504Y-112123393D02*
X117004314Y-111894821D01*
X117004314Y-111894821D02*
X116928123Y-111818631D01*
X116928123Y-111818631D02*
X116775742Y-111742440D01*
X116775742Y-111742440D02*
X116547171Y-111742440D01*
X116547171Y-111742440D02*
X116394790Y-111818631D01*
X116394790Y-111818631D02*
X116318600Y-111894821D01*
X116318600Y-111894821D02*
X116242409Y-112047202D01*
X116242409Y-112047202D02*
X116242409Y-112656726D01*
X116242409Y-112656726D02*
X117842409Y-112656726D01*
X117842409Y-112656726D02*
X117842409Y-112123393D01*
X117842409Y-112123393D02*
X117766219Y-111971012D01*
X117766219Y-111971012D02*
X117690028Y-111894821D01*
X117690028Y-111894821D02*
X117537647Y-111818631D01*
X117537647Y-111818631D02*
X117385266Y-111818631D01*
X117385266Y-111818631D02*
X117232885Y-111894821D01*
X117232885Y-111894821D02*
X117156695Y-111971012D01*
X117156695Y-111971012D02*
X117080504Y-112123393D01*
X117080504Y-112123393D02*
X117080504Y-112656726D01*
X117309076Y-109990059D02*
X116242409Y-109609107D01*
X116242409Y-109609107D02*
X117309076Y-109228154D01*
X117690028Y-108694821D02*
X117766219Y-108618630D01*
X117766219Y-108618630D02*
X117842409Y-108466249D01*
X117842409Y-108466249D02*
X117842409Y-108085297D01*
X117842409Y-108085297D02*
X117766219Y-107932916D01*
X117766219Y-107932916D02*
X117690028Y-107856725D01*
X117690028Y-107856725D02*
X117537647Y-107780535D01*
X117537647Y-107780535D02*
X117385266Y-107780535D01*
X117385266Y-107780535D02*
X117156695Y-107856725D01*
X117156695Y-107856725D02*
X116242409Y-108771011D01*
X116242409Y-108771011D02*
X116242409Y-107780535D01*
X116394790Y-107094820D02*
X116318600Y-107018630D01*
X116318600Y-107018630D02*
X116242409Y-107094820D01*
X116242409Y-107094820D02*
X116318600Y-107171011D01*
X116318600Y-107171011D02*
X116394790Y-107094820D01*
X116394790Y-107094820D02*
X116242409Y-107094820D01*
X117842409Y-106028153D02*
X117842409Y-105875772D01*
X117842409Y-105875772D02*
X117766219Y-105723391D01*
X117766219Y-105723391D02*
X117690028Y-105647201D01*
X117690028Y-105647201D02*
X117537647Y-105571010D01*
X117537647Y-105571010D02*
X117232885Y-105494820D01*
X117232885Y-105494820D02*
X116851933Y-105494820D01*
X116851933Y-105494820D02*
X116547171Y-105571010D01*
X116547171Y-105571010D02*
X116394790Y-105647201D01*
X116394790Y-105647201D02*
X116318600Y-105723391D01*
X116318600Y-105723391D02*
X116242409Y-105875772D01*
X116242409Y-105875772D02*
X116242409Y-106028153D01*
X116242409Y-106028153D02*
X116318600Y-106180534D01*
X116318600Y-106180534D02*
X116394790Y-106256725D01*
X116394790Y-106256725D02*
X116547171Y-106332915D01*
X116547171Y-106332915D02*
X116851933Y-106409106D01*
X116851933Y-106409106D02*
X117232885Y-106409106D01*
X117232885Y-106409106D02*
X117537647Y-106332915D01*
X117537647Y-106332915D02*
X117690028Y-106256725D01*
X117690028Y-106256725D02*
X117766219Y-106180534D01*
X117766219Y-106180534D02*
X117842409Y-106028153D01*
D10*
X112380642Y-97412141D02*
X112452071Y-97554999D01*
X112452071Y-97554999D02*
X112452071Y-97769284D01*
X112452071Y-97769284D02*
X112380642Y-97983570D01*
X112380642Y-97983570D02*
X112237785Y-98126427D01*
X112237785Y-98126427D02*
X112094928Y-98197856D01*
X112094928Y-98197856D02*
X111809214Y-98269284D01*
X111809214Y-98269284D02*
X111594928Y-98269284D01*
X111594928Y-98269284D02*
X111309214Y-98197856D01*
X111309214Y-98197856D02*
X111166357Y-98126427D01*
X111166357Y-98126427D02*
X111023500Y-97983570D01*
X111023500Y-97983570D02*
X110952071Y-97769284D01*
X110952071Y-97769284D02*
X110952071Y-97626427D01*
X110952071Y-97626427D02*
X111023500Y-97412141D01*
X111023500Y-97412141D02*
X111094928Y-97340713D01*
X111094928Y-97340713D02*
X111594928Y-97340713D01*
X111594928Y-97340713D02*
X111594928Y-97626427D01*
X111023500Y-96126427D02*
X110952071Y-96269284D01*
X110952071Y-96269284D02*
X110952071Y-96554999D01*
X110952071Y-96554999D02*
X111023500Y-96697856D01*
X111023500Y-96697856D02*
X111166357Y-96769284D01*
X111166357Y-96769284D02*
X111737785Y-96769284D01*
X111737785Y-96769284D02*
X111880642Y-96697856D01*
X111880642Y-96697856D02*
X111952071Y-96554999D01*
X111952071Y-96554999D02*
X111952071Y-96269284D01*
X111952071Y-96269284D02*
X111880642Y-96126427D01*
X111880642Y-96126427D02*
X111737785Y-96054999D01*
X111737785Y-96054999D02*
X111594928Y-96054999D01*
X111594928Y-96054999D02*
X111452071Y-96769284D01*
X110952071Y-95197856D02*
X111023500Y-95340713D01*
X111023500Y-95340713D02*
X111094928Y-95412142D01*
X111094928Y-95412142D02*
X111237785Y-95483570D01*
X111237785Y-95483570D02*
X111666357Y-95483570D01*
X111666357Y-95483570D02*
X111809214Y-95412142D01*
X111809214Y-95412142D02*
X111880642Y-95340713D01*
X111880642Y-95340713D02*
X111952071Y-95197856D01*
X111952071Y-95197856D02*
X111952071Y-94983570D01*
X111952071Y-94983570D02*
X111880642Y-94840713D01*
X111880642Y-94840713D02*
X111809214Y-94769285D01*
X111809214Y-94769285D02*
X111666357Y-94697856D01*
X111666357Y-94697856D02*
X111237785Y-94697856D01*
X111237785Y-94697856D02*
X111094928Y-94769285D01*
X111094928Y-94769285D02*
X111023500Y-94840713D01*
X111023500Y-94840713D02*
X110952071Y-94983570D01*
X110952071Y-94983570D02*
X110952071Y-95197856D01*
X111952071Y-94269284D02*
X111952071Y-93697856D01*
X110952071Y-94054999D02*
X112237785Y-94054999D01*
X112237785Y-94054999D02*
X112380642Y-93983570D01*
X112380642Y-93983570D02*
X112452071Y-93840713D01*
X112452071Y-93840713D02*
X112452071Y-93697856D01*
X111952071Y-93412141D02*
X111952071Y-92840713D01*
X110952071Y-93197856D02*
X112237785Y-93197856D01*
X112237785Y-93197856D02*
X112380642Y-93126427D01*
X112380642Y-93126427D02*
X112452071Y-92983570D01*
X112452071Y-92983570D02*
X112452071Y-92840713D01*
X111737785Y-90697856D02*
X111666357Y-90483570D01*
X111666357Y-90483570D02*
X111594928Y-90412141D01*
X111594928Y-90412141D02*
X111452071Y-90340713D01*
X111452071Y-90340713D02*
X111237785Y-90340713D01*
X111237785Y-90340713D02*
X111094928Y-90412141D01*
X111094928Y-90412141D02*
X111023500Y-90483570D01*
X111023500Y-90483570D02*
X110952071Y-90626427D01*
X110952071Y-90626427D02*
X110952071Y-91197856D01*
X110952071Y-91197856D02*
X112452071Y-91197856D01*
X112452071Y-91197856D02*
X112452071Y-90697856D01*
X112452071Y-90697856D02*
X112380642Y-90554999D01*
X112380642Y-90554999D02*
X112309214Y-90483570D01*
X112309214Y-90483570D02*
X112166357Y-90412141D01*
X112166357Y-90412141D02*
X112023500Y-90412141D01*
X112023500Y-90412141D02*
X111880642Y-90483570D01*
X111880642Y-90483570D02*
X111809214Y-90554999D01*
X111809214Y-90554999D02*
X111737785Y-90697856D01*
X111737785Y-90697856D02*
X111737785Y-91197856D01*
X110952071Y-89697856D02*
X111952071Y-89697856D01*
X111666357Y-89697856D02*
X111809214Y-89626427D01*
X111809214Y-89626427D02*
X111880642Y-89554999D01*
X111880642Y-89554999D02*
X111952071Y-89412141D01*
X111952071Y-89412141D02*
X111952071Y-89269284D01*
X110952071Y-88769285D02*
X111952071Y-88769285D01*
X112452071Y-88769285D02*
X112380642Y-88840713D01*
X112380642Y-88840713D02*
X112309214Y-88769285D01*
X112309214Y-88769285D02*
X112380642Y-88697856D01*
X112380642Y-88697856D02*
X112452071Y-88769285D01*
X112452071Y-88769285D02*
X112309214Y-88769285D01*
X111023500Y-87412142D02*
X110952071Y-87554999D01*
X110952071Y-87554999D02*
X110952071Y-87840713D01*
X110952071Y-87840713D02*
X111023500Y-87983570D01*
X111023500Y-87983570D02*
X111094928Y-88054999D01*
X111094928Y-88054999D02*
X111237785Y-88126427D01*
X111237785Y-88126427D02*
X111666357Y-88126427D01*
X111666357Y-88126427D02*
X111809214Y-88054999D01*
X111809214Y-88054999D02*
X111880642Y-87983570D01*
X111880642Y-87983570D02*
X111952071Y-87840713D01*
X111952071Y-87840713D02*
X111952071Y-87554999D01*
X111952071Y-87554999D02*
X111880642Y-87412142D01*
X110952071Y-86769285D02*
X112452071Y-86769285D01*
X111523500Y-86626428D02*
X110952071Y-86197856D01*
X111952071Y-86197856D02*
X111380642Y-86769285D01*
X111023500Y-84983570D02*
X110952071Y-85126427D01*
X110952071Y-85126427D02*
X110952071Y-85412142D01*
X110952071Y-85412142D02*
X111023500Y-85554999D01*
X111023500Y-85554999D02*
X111166357Y-85626427D01*
X111166357Y-85626427D02*
X111737785Y-85626427D01*
X111737785Y-85626427D02*
X111880642Y-85554999D01*
X111880642Y-85554999D02*
X111952071Y-85412142D01*
X111952071Y-85412142D02*
X111952071Y-85126427D01*
X111952071Y-85126427D02*
X111880642Y-84983570D01*
X111880642Y-84983570D02*
X111737785Y-84912142D01*
X111737785Y-84912142D02*
X111594928Y-84912142D01*
X111594928Y-84912142D02*
X111452071Y-85626427D01*
X110952071Y-84054999D02*
X111023500Y-84197856D01*
X111023500Y-84197856D02*
X111166357Y-84269285D01*
X111166357Y-84269285D02*
X112452071Y-84269285D01*
X110952071Y-83269285D02*
X111023500Y-83412142D01*
X111023500Y-83412142D02*
X111166357Y-83483571D01*
X111166357Y-83483571D02*
X112452071Y-83483571D01*
D12*
X133036000Y-74108000D02*
X133036000Y-75438000D01*
X133036000Y-76708000D02*
X133036000Y-125028000D01*
X134366000Y-74108000D02*
X133036000Y-74108000D01*
X135636000Y-74108000D02*
X135636000Y-76708000D01*
X135636000Y-76708000D02*
X133036000Y-76708000D01*
X138236000Y-74108000D02*
X135636000Y-74108000D01*
X138236000Y-74108000D02*
X138236000Y-125028000D01*
X138236000Y-125028000D02*
X133036000Y-125028000D01*
%LPC*%
D13*
X128270000Y-124460000D03*
D14*
X121770000Y-124460000D03*
D15*
X118745000Y-75057000D03*
D16*
X121285000Y-75057000D03*
X123825000Y-75057000D03*
X126365000Y-75057000D03*
X128905000Y-75057000D03*
D15*
X118745000Y-78613000D03*
D16*
X121285000Y-78613000D03*
X123825000Y-78613000D03*
X126365000Y-78613000D03*
X128905000Y-78613000D03*
D15*
X111252000Y-80391000D03*
D16*
X111252000Y-77851000D03*
X111252000Y-75311000D03*
D15*
X113792000Y-80391000D03*
D16*
X113792000Y-77851000D03*
X113792000Y-75311000D03*
D15*
X130048000Y-70104000D03*
D16*
X127508000Y-70104000D03*
X124968000Y-70104000D03*
X122428000Y-70104000D03*
X119888000Y-70104000D03*
X117348000Y-70104000D03*
D15*
X120523000Y-83185000D03*
D16*
X120523000Y-85725000D03*
X120523000Y-88265000D03*
D17*
X113411000Y-109855000D03*
D18*
X113411000Y-107355000D03*
D17*
X113411000Y-118491000D03*
D18*
X113411000Y-115991000D03*
D17*
X113411000Y-127127000D03*
D18*
X113411000Y-124627000D03*
D14*
X124968000Y-83058000D03*
D19*
X124968000Y-93218000D03*
D15*
X129413000Y-85598000D03*
D16*
X129413000Y-88138000D03*
X129413000Y-90678000D03*
X129413000Y-93218000D03*
D20*
X112649000Y-101219000D03*
D21*
X113299000Y-102219000D03*
X113949000Y-101219000D03*
X114599000Y-102219000D03*
X115249000Y-101219000D03*
D22*
X110374000Y-101439000D03*
X117524000Y-101439000D03*
D23*
X135636000Y-70485000D03*
X135636000Y-128485000D03*
D15*
X120523000Y-93345000D03*
D16*
X120523000Y-95885000D03*
D15*
X140589000Y-104648000D03*
D16*
X140589000Y-107188000D03*
X140589000Y-109728000D03*
X140589000Y-112268000D03*
X140589000Y-114808000D03*
X140589000Y-117348000D03*
D15*
X140589000Y-69977000D03*
D16*
X140589000Y-72517000D03*
X140589000Y-75057000D03*
D15*
X140589000Y-78613000D03*
D16*
X140589000Y-81153000D03*
X140589000Y-83693000D03*
D15*
X140589000Y-127000000D03*
D16*
X140589000Y-129540000D03*
D15*
X140589000Y-87300000D03*
D16*
X140589000Y-89840000D03*
X140589000Y-92380000D03*
D15*
X140589000Y-120904000D03*
D16*
X140589000Y-123444000D03*
D15*
X140589000Y-96012000D03*
D16*
X140589000Y-98552000D03*
X140589000Y-101092000D03*
D15*
X123952000Y-116078000D03*
D16*
X126492000Y-116078000D03*
X129032000Y-116078000D03*
D24*
X122301000Y-103886000D03*
D25*
X124841000Y-103886000D03*
D15*
X129286000Y-98425000D03*
D16*
X129286000Y-100965000D03*
X129286000Y-103505000D03*
X129286000Y-106045000D03*
X129286000Y-108585000D03*
X129286000Y-111125000D03*
D15*
X134366000Y-75438000D03*
D16*
X136906000Y-75438000D03*
X134366000Y-77978000D03*
X136906000Y-77978000D03*
X134366000Y-80518000D03*
X136906000Y-80518000D03*
X134366000Y-83058000D03*
X136906000Y-83058000D03*
X134366000Y-85598000D03*
X136906000Y-85598000D03*
X134366000Y-88138000D03*
X136906000Y-88138000D03*
X134366000Y-90678000D03*
X136906000Y-90678000D03*
X134366000Y-93218000D03*
X136906000Y-93218000D03*
X134366000Y-95758000D03*
X136906000Y-95758000D03*
X134366000Y-98298000D03*
X136906000Y-98298000D03*
X134366000Y-100838000D03*
X136906000Y-100838000D03*
X134366000Y-103378000D03*
X136906000Y-103378000D03*
X134366000Y-105918000D03*
X136906000Y-105918000D03*
X134366000Y-108458000D03*
X136906000Y-108458000D03*
X134366000Y-110998000D03*
X136906000Y-110998000D03*
X134366000Y-113538000D03*
X136906000Y-113538000D03*
X134366000Y-116078000D03*
X136906000Y-116078000D03*
X134366000Y-118618000D03*
X136906000Y-118618000D03*
X134366000Y-121158000D03*
X136906000Y-121158000D03*
X134366000Y-123698000D03*
X136906000Y-123698000D03*
%LPD*%
M02*
