G04 #@! TF.GenerationSoftware,KiCad,Pcbnew,8.0.8*
G04 #@! TF.CreationDate,2025-05-07T21:48:01+01:00*
G04 #@! TF.ProjectId,RPi-flex_PCB02,5250692d-666c-4657-985f-50434230322e,rev?*
G04 #@! TF.SameCoordinates,Original*
G04 #@! TF.FileFunction,Legend,Top*
G04 #@! TF.FilePolarity,Positive*
%FSLAX46Y46*%
G04 Gerber Fmt 4.6, Leading zero omitted, Abs format (unit mm)*
G04 Created by KiCad (PCBNEW 8.0.8) date 2025-05-07 21:48:01*
%MOMM*%
%LPD*%
G01*
G04 APERTURE LIST*
G04 Aperture macros list*
%AMRoundRect*
0 Rectangle with rounded corners*
0 $1 Rounding radius*
0 $2 $3 $4 $5 $6 $7 $8 $9 X,Y pos of 4 corners*
0 Add a 4 corners polygon primitive as box body*
4,1,4,$2,$3,$4,$5,$6,$7,$8,$9,$2,$3,0*
0 Add four circle primitives for the rounded corners*
1,1,$1+$1,$2,$3*
1,1,$1+$1,$4,$5*
1,1,$1+$1,$6,$7*
1,1,$1+$1,$8,$9*
0 Add four rect primitives between the rounded corners*
20,1,$1+$1,$2,$3,$4,$5,0*
20,1,$1+$1,$4,$5,$6,$7,0*
20,1,$1+$1,$6,$7,$8,$9,0*
20,1,$1+$1,$8,$9,$2,$3,0*%
G04 Aperture macros list end*
%ADD10C,0.150000*%
%ADD11C,0.200000*%
%ADD12C,0.170000*%
%ADD13C,0.180000*%
%ADD14C,0.175000*%
%ADD15C,0.300000*%
%ADD16C,0.250000*%
%ADD17C,0.120000*%
%ADD18R,1.600000X1.600000*%
%ADD19C,1.600000*%
%ADD20R,1.700000X1.700000*%
%ADD21O,1.700000X1.700000*%
%ADD22RoundRect,0.250000X0.750000X-0.600000X0.750000X0.600000X-0.750000X0.600000X-0.750000X-0.600000X0*%
%ADD23O,2.000000X1.700000*%
%ADD24O,1.600000X1.600000*%
%ADD25R,0.840000X0.840000*%
%ADD26C,0.840000*%
%ADD27O,0.850000X1.850000*%
%ADD28C,2.200000*%
%ADD29R,1.800000X1.800000*%
%ADD30C,1.800000*%
G04 APERTURE END LIST*
D10*
X115259295Y-76047476D02*
X115259295Y-75552238D01*
X115259295Y-75552238D02*
X115564057Y-75818904D01*
X115564057Y-75818904D02*
X115564057Y-75704619D01*
X115564057Y-75704619D02*
X115602152Y-75628428D01*
X115602152Y-75628428D02*
X115640247Y-75590333D01*
X115640247Y-75590333D02*
X115716438Y-75552238D01*
X115716438Y-75552238D02*
X115906914Y-75552238D01*
X115906914Y-75552238D02*
X115983104Y-75590333D01*
X115983104Y-75590333D02*
X116021200Y-75628428D01*
X116021200Y-75628428D02*
X116059295Y-75704619D01*
X116059295Y-75704619D02*
X116059295Y-75933190D01*
X116059295Y-75933190D02*
X116021200Y-76009381D01*
X116021200Y-76009381D02*
X115983104Y-76047476D01*
X115259295Y-75323666D02*
X116059295Y-75056999D01*
X116059295Y-75056999D02*
X115259295Y-74790333D01*
X115259295Y-74599857D02*
X115259295Y-74104619D01*
X115259295Y-74104619D02*
X115564057Y-74371285D01*
X115564057Y-74371285D02*
X115564057Y-74257000D01*
X115564057Y-74257000D02*
X115602152Y-74180809D01*
X115602152Y-74180809D02*
X115640247Y-74142714D01*
X115640247Y-74142714D02*
X115716438Y-74104619D01*
X115716438Y-74104619D02*
X115906914Y-74104619D01*
X115906914Y-74104619D02*
X115983104Y-74142714D01*
X115983104Y-74142714D02*
X116021200Y-74180809D01*
X116021200Y-74180809D02*
X116059295Y-74257000D01*
X116059295Y-74257000D02*
X116059295Y-74485571D01*
X116059295Y-74485571D02*
X116021200Y-74561762D01*
X116021200Y-74561762D02*
X115983104Y-74599857D01*
X115297390Y-78460523D02*
X115259295Y-78536713D01*
X115259295Y-78536713D02*
X115259295Y-78650999D01*
X115259295Y-78650999D02*
X115297390Y-78765285D01*
X115297390Y-78765285D02*
X115373580Y-78841475D01*
X115373580Y-78841475D02*
X115449771Y-78879570D01*
X115449771Y-78879570D02*
X115602152Y-78917666D01*
X115602152Y-78917666D02*
X115716438Y-78917666D01*
X115716438Y-78917666D02*
X115868819Y-78879570D01*
X115868819Y-78879570D02*
X115945009Y-78841475D01*
X115945009Y-78841475D02*
X116021200Y-78765285D01*
X116021200Y-78765285D02*
X116059295Y-78650999D01*
X116059295Y-78650999D02*
X116059295Y-78574808D01*
X116059295Y-78574808D02*
X116021200Y-78460523D01*
X116021200Y-78460523D02*
X115983104Y-78422427D01*
X115983104Y-78422427D02*
X115716438Y-78422427D01*
X115716438Y-78422427D02*
X115716438Y-78574808D01*
X116059295Y-78079570D02*
X115259295Y-78079570D01*
X115259295Y-78079570D02*
X116059295Y-77622427D01*
X116059295Y-77622427D02*
X115259295Y-77622427D01*
X116059295Y-77241475D02*
X115259295Y-77241475D01*
X115259295Y-77241475D02*
X115259295Y-77050999D01*
X115259295Y-77050999D02*
X115297390Y-76936713D01*
X115297390Y-76936713D02*
X115373580Y-76860523D01*
X115373580Y-76860523D02*
X115449771Y-76822428D01*
X115449771Y-76822428D02*
X115602152Y-76784332D01*
X115602152Y-76784332D02*
X115716438Y-76784332D01*
X115716438Y-76784332D02*
X115868819Y-76822428D01*
X115868819Y-76822428D02*
X115945009Y-76860523D01*
X115945009Y-76860523D02*
X116021200Y-76936713D01*
X116021200Y-76936713D02*
X116059295Y-77050999D01*
X116059295Y-77050999D02*
X116059295Y-77241475D01*
X111943704Y-80492619D02*
X111943704Y-80111667D01*
X111943704Y-80111667D02*
X111562752Y-80073571D01*
X111562752Y-80073571D02*
X111600847Y-80111667D01*
X111600847Y-80111667D02*
X111638942Y-80187857D01*
X111638942Y-80187857D02*
X111638942Y-80378333D01*
X111638942Y-80378333D02*
X111600847Y-80454524D01*
X111600847Y-80454524D02*
X111562752Y-80492619D01*
X111562752Y-80492619D02*
X111486561Y-80530714D01*
X111486561Y-80530714D02*
X111296085Y-80530714D01*
X111296085Y-80530714D02*
X111219895Y-80492619D01*
X111219895Y-80492619D02*
X111181800Y-80454524D01*
X111181800Y-80454524D02*
X111143704Y-80378333D01*
X111143704Y-80378333D02*
X111143704Y-80187857D01*
X111143704Y-80187857D02*
X111181800Y-80111667D01*
X111181800Y-80111667D02*
X111219895Y-80073571D01*
X111943704Y-80759286D02*
X111143704Y-81025953D01*
X111143704Y-81025953D02*
X111943704Y-81292619D01*
D11*
X126193571Y-112916957D02*
X125764999Y-112916957D01*
X125764999Y-112916957D02*
X125722142Y-113345528D01*
X125722142Y-113345528D02*
X125764999Y-113302671D01*
X125764999Y-113302671D02*
X125850714Y-113259814D01*
X125850714Y-113259814D02*
X126064999Y-113259814D01*
X126064999Y-113259814D02*
X126150714Y-113302671D01*
X126150714Y-113302671D02*
X126193571Y-113345528D01*
X126193571Y-113345528D02*
X126236428Y-113431242D01*
X126236428Y-113431242D02*
X126236428Y-113645528D01*
X126236428Y-113645528D02*
X126193571Y-113731242D01*
X126193571Y-113731242D02*
X126150714Y-113774100D01*
X126150714Y-113774100D02*
X126064999Y-113816957D01*
X126064999Y-113816957D02*
X125850714Y-113816957D01*
X125850714Y-113816957D02*
X125764999Y-113774100D01*
X125764999Y-113774100D02*
X125722142Y-113731242D01*
X126493571Y-112916957D02*
X126793571Y-113816957D01*
X126793571Y-113816957D02*
X127093571Y-112916957D01*
X122834523Y-72711695D02*
X123329761Y-72711695D01*
X123329761Y-72711695D02*
X123063095Y-73016457D01*
X123063095Y-73016457D02*
X123177380Y-73016457D01*
X123177380Y-73016457D02*
X123253571Y-73054552D01*
X123253571Y-73054552D02*
X123291666Y-73092647D01*
X123291666Y-73092647D02*
X123329761Y-73168838D01*
X123329761Y-73168838D02*
X123329761Y-73359314D01*
X123329761Y-73359314D02*
X123291666Y-73435504D01*
X123291666Y-73435504D02*
X123253571Y-73473600D01*
X123253571Y-73473600D02*
X123177380Y-73511695D01*
X123177380Y-73511695D02*
X122948809Y-73511695D01*
X122948809Y-73511695D02*
X122872618Y-73473600D01*
X122872618Y-73473600D02*
X122834523Y-73435504D01*
X123558333Y-72711695D02*
X123825000Y-73511695D01*
X123825000Y-73511695D02*
X124091666Y-72711695D01*
X124282142Y-72711695D02*
X124777380Y-72711695D01*
X124777380Y-72711695D02*
X124510714Y-73016457D01*
X124510714Y-73016457D02*
X124624999Y-73016457D01*
X124624999Y-73016457D02*
X124701190Y-73054552D01*
X124701190Y-73054552D02*
X124739285Y-73092647D01*
X124739285Y-73092647D02*
X124777380Y-73168838D01*
X124777380Y-73168838D02*
X124777380Y-73359314D01*
X124777380Y-73359314D02*
X124739285Y-73435504D01*
X124739285Y-73435504D02*
X124701190Y-73473600D01*
X124701190Y-73473600D02*
X124624999Y-73511695D01*
X124624999Y-73511695D02*
X124396428Y-73511695D01*
X124396428Y-73511695D02*
X124320237Y-73473600D01*
X124320237Y-73473600D02*
X124282142Y-73435504D01*
X125266571Y-73473600D02*
X125380857Y-73511695D01*
X125380857Y-73511695D02*
X125571333Y-73511695D01*
X125571333Y-73511695D02*
X125647524Y-73473600D01*
X125647524Y-73473600D02*
X125685619Y-73435504D01*
X125685619Y-73435504D02*
X125723714Y-73359314D01*
X125723714Y-73359314D02*
X125723714Y-73283123D01*
X125723714Y-73283123D02*
X125685619Y-73206933D01*
X125685619Y-73206933D02*
X125647524Y-73168838D01*
X125647524Y-73168838D02*
X125571333Y-73130742D01*
X125571333Y-73130742D02*
X125418952Y-73092647D01*
X125418952Y-73092647D02*
X125342762Y-73054552D01*
X125342762Y-73054552D02*
X125304667Y-73016457D01*
X125304667Y-73016457D02*
X125266571Y-72940266D01*
X125266571Y-72940266D02*
X125266571Y-72864076D01*
X125266571Y-72864076D02*
X125304667Y-72787885D01*
X125304667Y-72787885D02*
X125342762Y-72749790D01*
X125342762Y-72749790D02*
X125418952Y-72711695D01*
X125418952Y-72711695D02*
X125609429Y-72711695D01*
X125609429Y-72711695D02*
X125723714Y-72749790D01*
X126066572Y-73511695D02*
X126066572Y-72711695D01*
X126066572Y-72711695D02*
X126257048Y-72711695D01*
X126257048Y-72711695D02*
X126371334Y-72749790D01*
X126371334Y-72749790D02*
X126447524Y-72825980D01*
X126447524Y-72825980D02*
X126485619Y-72902171D01*
X126485619Y-72902171D02*
X126523715Y-73054552D01*
X126523715Y-73054552D02*
X126523715Y-73168838D01*
X126523715Y-73168838D02*
X126485619Y-73321219D01*
X126485619Y-73321219D02*
X126447524Y-73397409D01*
X126447524Y-73397409D02*
X126371334Y-73473600D01*
X126371334Y-73473600D02*
X126257048Y-73511695D01*
X126257048Y-73511695D02*
X126066572Y-73511695D01*
X126828476Y-73283123D02*
X127209429Y-73283123D01*
X126752286Y-73511695D02*
X127018953Y-72711695D01*
X127018953Y-72711695D02*
X127285619Y-73511695D01*
X127952618Y-73473600D02*
X128066904Y-73511695D01*
X128066904Y-73511695D02*
X128257380Y-73511695D01*
X128257380Y-73511695D02*
X128333571Y-73473600D01*
X128333571Y-73473600D02*
X128371666Y-73435504D01*
X128371666Y-73435504D02*
X128409761Y-73359314D01*
X128409761Y-73359314D02*
X128409761Y-73283123D01*
X128409761Y-73283123D02*
X128371666Y-73206933D01*
X128371666Y-73206933D02*
X128333571Y-73168838D01*
X128333571Y-73168838D02*
X128257380Y-73130742D01*
X128257380Y-73130742D02*
X128104999Y-73092647D01*
X128104999Y-73092647D02*
X128028809Y-73054552D01*
X128028809Y-73054552D02*
X127990714Y-73016457D01*
X127990714Y-73016457D02*
X127952618Y-72940266D01*
X127952618Y-72940266D02*
X127952618Y-72864076D01*
X127952618Y-72864076D02*
X127990714Y-72787885D01*
X127990714Y-72787885D02*
X128028809Y-72749790D01*
X128028809Y-72749790D02*
X128104999Y-72711695D01*
X128104999Y-72711695D02*
X128295476Y-72711695D01*
X128295476Y-72711695D02*
X128409761Y-72749790D01*
X129209762Y-73435504D02*
X129171666Y-73473600D01*
X129171666Y-73473600D02*
X129057381Y-73511695D01*
X129057381Y-73511695D02*
X128981190Y-73511695D01*
X128981190Y-73511695D02*
X128866904Y-73473600D01*
X128866904Y-73473600D02*
X128790714Y-73397409D01*
X128790714Y-73397409D02*
X128752619Y-73321219D01*
X128752619Y-73321219D02*
X128714523Y-73168838D01*
X128714523Y-73168838D02*
X128714523Y-73054552D01*
X128714523Y-73054552D02*
X128752619Y-72902171D01*
X128752619Y-72902171D02*
X128790714Y-72825980D01*
X128790714Y-72825980D02*
X128866904Y-72749790D01*
X128866904Y-72749790D02*
X128981190Y-72711695D01*
X128981190Y-72711695D02*
X129057381Y-72711695D01*
X129057381Y-72711695D02*
X129171666Y-72749790D01*
X129171666Y-72749790D02*
X129209762Y-72787885D01*
X129933571Y-73511695D02*
X129552619Y-73511695D01*
X129552619Y-73511695D02*
X129552619Y-72711695D01*
X120675476Y-72749790D02*
X120599286Y-72711695D01*
X120599286Y-72711695D02*
X120485000Y-72711695D01*
X120485000Y-72711695D02*
X120370714Y-72749790D01*
X120370714Y-72749790D02*
X120294524Y-72825980D01*
X120294524Y-72825980D02*
X120256429Y-72902171D01*
X120256429Y-72902171D02*
X120218333Y-73054552D01*
X120218333Y-73054552D02*
X120218333Y-73168838D01*
X120218333Y-73168838D02*
X120256429Y-73321219D01*
X120256429Y-73321219D02*
X120294524Y-73397409D01*
X120294524Y-73397409D02*
X120370714Y-73473600D01*
X120370714Y-73473600D02*
X120485000Y-73511695D01*
X120485000Y-73511695D02*
X120561191Y-73511695D01*
X120561191Y-73511695D02*
X120675476Y-73473600D01*
X120675476Y-73473600D02*
X120713572Y-73435504D01*
X120713572Y-73435504D02*
X120713572Y-73168838D01*
X120713572Y-73168838D02*
X120561191Y-73168838D01*
X121056429Y-73511695D02*
X121056429Y-72711695D01*
X121056429Y-72711695D02*
X121513572Y-73511695D01*
X121513572Y-73511695D02*
X121513572Y-72711695D01*
X121894524Y-73511695D02*
X121894524Y-72711695D01*
X121894524Y-72711695D02*
X122085000Y-72711695D01*
X122085000Y-72711695D02*
X122199286Y-72749790D01*
X122199286Y-72749790D02*
X122275476Y-72825980D01*
X122275476Y-72825980D02*
X122313571Y-72902171D01*
X122313571Y-72902171D02*
X122351667Y-73054552D01*
X122351667Y-73054552D02*
X122351667Y-73168838D01*
X122351667Y-73168838D02*
X122313571Y-73321219D01*
X122313571Y-73321219D02*
X122275476Y-73397409D01*
X122275476Y-73397409D02*
X122199286Y-73473600D01*
X122199286Y-73473600D02*
X122085000Y-73511695D01*
X122085000Y-73511695D02*
X121894524Y-73511695D01*
D12*
X136772667Y-73094255D02*
X136439333Y-73094255D01*
X136439333Y-73094255D02*
X136406000Y-73475207D01*
X136406000Y-73475207D02*
X136439333Y-73437112D01*
X136439333Y-73437112D02*
X136506000Y-73399017D01*
X136506000Y-73399017D02*
X136672667Y-73399017D01*
X136672667Y-73399017D02*
X136739333Y-73437112D01*
X136739333Y-73437112D02*
X136772667Y-73475207D01*
X136772667Y-73475207D02*
X136806000Y-73551398D01*
X136806000Y-73551398D02*
X136806000Y-73741874D01*
X136806000Y-73741874D02*
X136772667Y-73818064D01*
X136772667Y-73818064D02*
X136739333Y-73856160D01*
X136739333Y-73856160D02*
X136672667Y-73894255D01*
X136672667Y-73894255D02*
X136506000Y-73894255D01*
X136506000Y-73894255D02*
X136439333Y-73856160D01*
X136439333Y-73856160D02*
X136406000Y-73818064D01*
X137006000Y-73094255D02*
X137239334Y-73894255D01*
X137239334Y-73894255D02*
X137472667Y-73094255D01*
X133245333Y-73094255D02*
X133678666Y-73094255D01*
X133678666Y-73094255D02*
X133445333Y-73399017D01*
X133445333Y-73399017D02*
X133545333Y-73399017D01*
X133545333Y-73399017D02*
X133611999Y-73437112D01*
X133611999Y-73437112D02*
X133645333Y-73475207D01*
X133645333Y-73475207D02*
X133678666Y-73551398D01*
X133678666Y-73551398D02*
X133678666Y-73741874D01*
X133678666Y-73741874D02*
X133645333Y-73818064D01*
X133645333Y-73818064D02*
X133611999Y-73856160D01*
X133611999Y-73856160D02*
X133545333Y-73894255D01*
X133545333Y-73894255D02*
X133345333Y-73894255D01*
X133345333Y-73894255D02*
X133278666Y-73856160D01*
X133278666Y-73856160D02*
X133245333Y-73818064D01*
X133878666Y-73094255D02*
X134112000Y-73894255D01*
X134112000Y-73894255D02*
X134345333Y-73094255D01*
X134512000Y-73094255D02*
X134945333Y-73094255D01*
X134945333Y-73094255D02*
X134712000Y-73399017D01*
X134712000Y-73399017D02*
X134812000Y-73399017D01*
X134812000Y-73399017D02*
X134878666Y-73437112D01*
X134878666Y-73437112D02*
X134912000Y-73475207D01*
X134912000Y-73475207D02*
X134945333Y-73551398D01*
X134945333Y-73551398D02*
X134945333Y-73741874D01*
X134945333Y-73741874D02*
X134912000Y-73818064D01*
X134912000Y-73818064D02*
X134878666Y-73856160D01*
X134878666Y-73856160D02*
X134812000Y-73894255D01*
X134812000Y-73894255D02*
X134612000Y-73894255D01*
X134612000Y-73894255D02*
X134545333Y-73856160D01*
X134545333Y-73856160D02*
X134512000Y-73818064D01*
D13*
X133756476Y-125074830D02*
X133680286Y-125036735D01*
X133680286Y-125036735D02*
X133566000Y-125036735D01*
X133566000Y-125036735D02*
X133451714Y-125074830D01*
X133451714Y-125074830D02*
X133375524Y-125151020D01*
X133375524Y-125151020D02*
X133337429Y-125227211D01*
X133337429Y-125227211D02*
X133299333Y-125379592D01*
X133299333Y-125379592D02*
X133299333Y-125493878D01*
X133299333Y-125493878D02*
X133337429Y-125646259D01*
X133337429Y-125646259D02*
X133375524Y-125722449D01*
X133375524Y-125722449D02*
X133451714Y-125798640D01*
X133451714Y-125798640D02*
X133566000Y-125836735D01*
X133566000Y-125836735D02*
X133642191Y-125836735D01*
X133642191Y-125836735D02*
X133756476Y-125798640D01*
X133756476Y-125798640D02*
X133794572Y-125760544D01*
X133794572Y-125760544D02*
X133794572Y-125493878D01*
X133794572Y-125493878D02*
X133642191Y-125493878D01*
X134137429Y-125836735D02*
X134137429Y-125036735D01*
X134137429Y-125036735D02*
X134594572Y-125836735D01*
X134594572Y-125836735D02*
X134594572Y-125036735D01*
X134975524Y-125836735D02*
X134975524Y-125036735D01*
X134975524Y-125036735D02*
X135166000Y-125036735D01*
X135166000Y-125036735D02*
X135280286Y-125074830D01*
X135280286Y-125074830D02*
X135356476Y-125151020D01*
X135356476Y-125151020D02*
X135394571Y-125227211D01*
X135394571Y-125227211D02*
X135432667Y-125379592D01*
X135432667Y-125379592D02*
X135432667Y-125493878D01*
X135432667Y-125493878D02*
X135394571Y-125646259D01*
X135394571Y-125646259D02*
X135356476Y-125722449D01*
X135356476Y-125722449D02*
X135280286Y-125798640D01*
X135280286Y-125798640D02*
X135166000Y-125836735D01*
X135166000Y-125836735D02*
X134975524Y-125836735D01*
D11*
X111068000Y-72080219D02*
X111068000Y-71080219D01*
X111068000Y-71080219D02*
X111410857Y-71080219D01*
X111410857Y-71080219D02*
X111496572Y-71127838D01*
X111496572Y-71127838D02*
X111539429Y-71175457D01*
X111539429Y-71175457D02*
X111582286Y-71270695D01*
X111582286Y-71270695D02*
X111582286Y-71413552D01*
X111582286Y-71413552D02*
X111539429Y-71508790D01*
X111539429Y-71508790D02*
X111496572Y-71556409D01*
X111496572Y-71556409D02*
X111410857Y-71604028D01*
X111410857Y-71604028D02*
X111068000Y-71604028D01*
X111882286Y-71080219D02*
X112096572Y-72080219D01*
X112096572Y-72080219D02*
X112268000Y-71365933D01*
X112268000Y-71365933D02*
X112439429Y-72080219D01*
X112439429Y-72080219D02*
X112653715Y-71080219D01*
X113510857Y-72080219D02*
X113210857Y-71604028D01*
X112996571Y-72080219D02*
X112996571Y-71080219D01*
X112996571Y-71080219D02*
X113339428Y-71080219D01*
X113339428Y-71080219D02*
X113425143Y-71127838D01*
X113425143Y-71127838D02*
X113468000Y-71175457D01*
X113468000Y-71175457D02*
X113510857Y-71270695D01*
X113510857Y-71270695D02*
X113510857Y-71413552D01*
X113510857Y-71413552D02*
X113468000Y-71508790D01*
X113468000Y-71508790D02*
X113425143Y-71556409D01*
X113425143Y-71556409D02*
X113339428Y-71604028D01*
X113339428Y-71604028D02*
X112996571Y-71604028D01*
X115256695Y-80543380D02*
X115256695Y-80924332D01*
X115256695Y-80924332D02*
X115637647Y-80962428D01*
X115637647Y-80962428D02*
X115599552Y-80924332D01*
X115599552Y-80924332D02*
X115561457Y-80848142D01*
X115561457Y-80848142D02*
X115561457Y-80657666D01*
X115561457Y-80657666D02*
X115599552Y-80581475D01*
X115599552Y-80581475D02*
X115637647Y-80543380D01*
X115637647Y-80543380D02*
X115713838Y-80505285D01*
X115713838Y-80505285D02*
X115904314Y-80505285D01*
X115904314Y-80505285D02*
X115980504Y-80543380D01*
X115980504Y-80543380D02*
X116018600Y-80581475D01*
X116018600Y-80581475D02*
X116056695Y-80657666D01*
X116056695Y-80657666D02*
X116056695Y-80848142D01*
X116056695Y-80848142D02*
X116018600Y-80924332D01*
X116018600Y-80924332D02*
X115980504Y-80962428D01*
X115256695Y-80276713D02*
X116056695Y-80010046D01*
X116056695Y-80010046D02*
X115256695Y-79743380D01*
X122936095Y-112910838D02*
X122840857Y-112863219D01*
X122840857Y-112863219D02*
X122698000Y-112863219D01*
X122698000Y-112863219D02*
X122555143Y-112910838D01*
X122555143Y-112910838D02*
X122459905Y-113006076D01*
X122459905Y-113006076D02*
X122412286Y-113101314D01*
X122412286Y-113101314D02*
X122364667Y-113291790D01*
X122364667Y-113291790D02*
X122364667Y-113434647D01*
X122364667Y-113434647D02*
X122412286Y-113625123D01*
X122412286Y-113625123D02*
X122459905Y-113720361D01*
X122459905Y-113720361D02*
X122555143Y-113815600D01*
X122555143Y-113815600D02*
X122698000Y-113863219D01*
X122698000Y-113863219D02*
X122793238Y-113863219D01*
X122793238Y-113863219D02*
X122936095Y-113815600D01*
X122936095Y-113815600D02*
X122983714Y-113767980D01*
X122983714Y-113767980D02*
X122983714Y-113434647D01*
X122983714Y-113434647D02*
X122793238Y-113434647D01*
X123412286Y-113863219D02*
X123412286Y-112863219D01*
X123412286Y-112863219D02*
X123983714Y-113863219D01*
X123983714Y-113863219D02*
X123983714Y-112863219D01*
X124459905Y-113863219D02*
X124459905Y-112863219D01*
X124459905Y-112863219D02*
X124698000Y-112863219D01*
X124698000Y-112863219D02*
X124840857Y-112910838D01*
X124840857Y-112910838D02*
X124936095Y-113006076D01*
X124936095Y-113006076D02*
X124983714Y-113101314D01*
X124983714Y-113101314D02*
X125031333Y-113291790D01*
X125031333Y-113291790D02*
X125031333Y-113434647D01*
X125031333Y-113434647D02*
X124983714Y-113625123D01*
X124983714Y-113625123D02*
X124936095Y-113720361D01*
X124936095Y-113720361D02*
X124840857Y-113815600D01*
X124840857Y-113815600D02*
X124698000Y-113863219D01*
X124698000Y-113863219D02*
X124459905Y-113863219D01*
X109307219Y-124015476D02*
X109307219Y-124491666D01*
X109307219Y-124491666D02*
X109783409Y-124539285D01*
X109783409Y-124539285D02*
X109735790Y-124491666D01*
X109735790Y-124491666D02*
X109688171Y-124396428D01*
X109688171Y-124396428D02*
X109688171Y-124158333D01*
X109688171Y-124158333D02*
X109735790Y-124063095D01*
X109735790Y-124063095D02*
X109783409Y-124015476D01*
X109783409Y-124015476D02*
X109878647Y-123967857D01*
X109878647Y-123967857D02*
X110116742Y-123967857D01*
X110116742Y-123967857D02*
X110211980Y-124015476D01*
X110211980Y-124015476D02*
X110259600Y-124063095D01*
X110259600Y-124063095D02*
X110307219Y-124158333D01*
X110307219Y-124158333D02*
X110307219Y-124396428D01*
X110307219Y-124396428D02*
X110259600Y-124491666D01*
X110259600Y-124491666D02*
X110211980Y-124539285D01*
X109307219Y-123682142D02*
X110307219Y-123348809D01*
X110307219Y-123348809D02*
X109307219Y-123015476D01*
X109307219Y-115379476D02*
X109307219Y-115855666D01*
X109307219Y-115855666D02*
X109783409Y-115903285D01*
X109783409Y-115903285D02*
X109735790Y-115855666D01*
X109735790Y-115855666D02*
X109688171Y-115760428D01*
X109688171Y-115760428D02*
X109688171Y-115522333D01*
X109688171Y-115522333D02*
X109735790Y-115427095D01*
X109735790Y-115427095D02*
X109783409Y-115379476D01*
X109783409Y-115379476D02*
X109878647Y-115331857D01*
X109878647Y-115331857D02*
X110116742Y-115331857D01*
X110116742Y-115331857D02*
X110211980Y-115379476D01*
X110211980Y-115379476D02*
X110259600Y-115427095D01*
X110259600Y-115427095D02*
X110307219Y-115522333D01*
X110307219Y-115522333D02*
X110307219Y-115760428D01*
X110307219Y-115760428D02*
X110259600Y-115855666D01*
X110259600Y-115855666D02*
X110211980Y-115903285D01*
X109307219Y-115046142D02*
X110307219Y-114712809D01*
X110307219Y-114712809D02*
X109307219Y-114379476D01*
X109307219Y-106743476D02*
X109307219Y-107219666D01*
X109307219Y-107219666D02*
X109783409Y-107267285D01*
X109783409Y-107267285D02*
X109735790Y-107219666D01*
X109735790Y-107219666D02*
X109688171Y-107124428D01*
X109688171Y-107124428D02*
X109688171Y-106886333D01*
X109688171Y-106886333D02*
X109735790Y-106791095D01*
X109735790Y-106791095D02*
X109783409Y-106743476D01*
X109783409Y-106743476D02*
X109878647Y-106695857D01*
X109878647Y-106695857D02*
X110116742Y-106695857D01*
X110116742Y-106695857D02*
X110211980Y-106743476D01*
X110211980Y-106743476D02*
X110259600Y-106791095D01*
X110259600Y-106791095D02*
X110307219Y-106886333D01*
X110307219Y-106886333D02*
X110307219Y-107124428D01*
X110307219Y-107124428D02*
X110259600Y-107219666D01*
X110259600Y-107219666D02*
X110211980Y-107267285D01*
X109307219Y-106410142D02*
X110307219Y-106076809D01*
X110307219Y-106076809D02*
X109307219Y-105743476D01*
D10*
X121564476Y-105518390D02*
X121488286Y-105480295D01*
X121488286Y-105480295D02*
X121374000Y-105480295D01*
X121374000Y-105480295D02*
X121259714Y-105518390D01*
X121259714Y-105518390D02*
X121183524Y-105594580D01*
X121183524Y-105594580D02*
X121145429Y-105670771D01*
X121145429Y-105670771D02*
X121107333Y-105823152D01*
X121107333Y-105823152D02*
X121107333Y-105937438D01*
X121107333Y-105937438D02*
X121145429Y-106089819D01*
X121145429Y-106089819D02*
X121183524Y-106166009D01*
X121183524Y-106166009D02*
X121259714Y-106242200D01*
X121259714Y-106242200D02*
X121374000Y-106280295D01*
X121374000Y-106280295D02*
X121450191Y-106280295D01*
X121450191Y-106280295D02*
X121564476Y-106242200D01*
X121564476Y-106242200D02*
X121602572Y-106204104D01*
X121602572Y-106204104D02*
X121602572Y-105937438D01*
X121602572Y-105937438D02*
X121450191Y-105937438D01*
X121945429Y-106280295D02*
X121945429Y-105480295D01*
X121945429Y-105480295D02*
X122402572Y-106280295D01*
X122402572Y-106280295D02*
X122402572Y-105480295D01*
X122783524Y-106280295D02*
X122783524Y-105480295D01*
X122783524Y-105480295D02*
X122974000Y-105480295D01*
X122974000Y-105480295D02*
X123088286Y-105518390D01*
X123088286Y-105518390D02*
X123164476Y-105594580D01*
X123164476Y-105594580D02*
X123202571Y-105670771D01*
X123202571Y-105670771D02*
X123240667Y-105823152D01*
X123240667Y-105823152D02*
X123240667Y-105937438D01*
X123240667Y-105937438D02*
X123202571Y-106089819D01*
X123202571Y-106089819D02*
X123164476Y-106166009D01*
X123164476Y-106166009D02*
X123088286Y-106242200D01*
X123088286Y-106242200D02*
X122974000Y-106280295D01*
X122974000Y-106280295D02*
X122783524Y-106280295D01*
D11*
X118719619Y-72711695D02*
X118338667Y-72711695D01*
X118338667Y-72711695D02*
X118300571Y-73092647D01*
X118300571Y-73092647D02*
X118338667Y-73054552D01*
X118338667Y-73054552D02*
X118414857Y-73016457D01*
X118414857Y-73016457D02*
X118605333Y-73016457D01*
X118605333Y-73016457D02*
X118681524Y-73054552D01*
X118681524Y-73054552D02*
X118719619Y-73092647D01*
X118719619Y-73092647D02*
X118757714Y-73168838D01*
X118757714Y-73168838D02*
X118757714Y-73359314D01*
X118757714Y-73359314D02*
X118719619Y-73435504D01*
X118719619Y-73435504D02*
X118681524Y-73473600D01*
X118681524Y-73473600D02*
X118605333Y-73511695D01*
X118605333Y-73511695D02*
X118414857Y-73511695D01*
X118414857Y-73511695D02*
X118338667Y-73473600D01*
X118338667Y-73473600D02*
X118300571Y-73435504D01*
X118986286Y-72711695D02*
X119252953Y-73511695D01*
X119252953Y-73511695D02*
X119519619Y-72711695D01*
D14*
X122169733Y-88544380D02*
X122169733Y-88925332D01*
X122169733Y-88925332D02*
X122503066Y-88963428D01*
X122503066Y-88963428D02*
X122469733Y-88925332D01*
X122469733Y-88925332D02*
X122436400Y-88849142D01*
X122436400Y-88849142D02*
X122436400Y-88658666D01*
X122436400Y-88658666D02*
X122469733Y-88582475D01*
X122469733Y-88582475D02*
X122503066Y-88544380D01*
X122503066Y-88544380D02*
X122569733Y-88506285D01*
X122569733Y-88506285D02*
X122736400Y-88506285D01*
X122736400Y-88506285D02*
X122803066Y-88544380D01*
X122803066Y-88544380D02*
X122836400Y-88582475D01*
X122836400Y-88582475D02*
X122869733Y-88658666D01*
X122869733Y-88658666D02*
X122869733Y-88849142D01*
X122869733Y-88849142D02*
X122836400Y-88925332D01*
X122836400Y-88925332D02*
X122803066Y-88963428D01*
X122169733Y-88277713D02*
X122869733Y-88011046D01*
X122869733Y-88011046D02*
X122169733Y-87744380D01*
X122203066Y-83591332D02*
X122169733Y-83657999D01*
X122169733Y-83657999D02*
X122169733Y-83757999D01*
X122169733Y-83757999D02*
X122203066Y-83857999D01*
X122203066Y-83857999D02*
X122269733Y-83924666D01*
X122269733Y-83924666D02*
X122336400Y-83957999D01*
X122336400Y-83957999D02*
X122469733Y-83991332D01*
X122469733Y-83991332D02*
X122569733Y-83991332D01*
X122569733Y-83991332D02*
X122703066Y-83957999D01*
X122703066Y-83957999D02*
X122769733Y-83924666D01*
X122769733Y-83924666D02*
X122836400Y-83857999D01*
X122836400Y-83857999D02*
X122869733Y-83757999D01*
X122869733Y-83757999D02*
X122869733Y-83691332D01*
X122869733Y-83691332D02*
X122836400Y-83591332D01*
X122836400Y-83591332D02*
X122803066Y-83557999D01*
X122803066Y-83557999D02*
X122569733Y-83557999D01*
X122569733Y-83557999D02*
X122569733Y-83691332D01*
X122869733Y-83257999D02*
X122169733Y-83257999D01*
X122169733Y-83257999D02*
X122869733Y-82857999D01*
X122869733Y-82857999D02*
X122169733Y-82857999D01*
X122869733Y-82524666D02*
X122169733Y-82524666D01*
X122169733Y-82524666D02*
X122169733Y-82357999D01*
X122169733Y-82357999D02*
X122203066Y-82257999D01*
X122203066Y-82257999D02*
X122269733Y-82191333D01*
X122269733Y-82191333D02*
X122336400Y-82157999D01*
X122336400Y-82157999D02*
X122469733Y-82124666D01*
X122469733Y-82124666D02*
X122569733Y-82124666D01*
X122569733Y-82124666D02*
X122703066Y-82157999D01*
X122703066Y-82157999D02*
X122769733Y-82191333D01*
X122769733Y-82191333D02*
X122836400Y-82257999D01*
X122836400Y-82257999D02*
X122869733Y-82357999D01*
X122869733Y-82357999D02*
X122869733Y-82524666D01*
D10*
X110863332Y-69738771D02*
X110863332Y-69138771D01*
X110863332Y-69138771D02*
X111129999Y-69138771D01*
X111129999Y-69138771D02*
X111196666Y-69167342D01*
X111196666Y-69167342D02*
X111229999Y-69195914D01*
X111229999Y-69195914D02*
X111263332Y-69253057D01*
X111263332Y-69253057D02*
X111263332Y-69338771D01*
X111263332Y-69338771D02*
X111229999Y-69395914D01*
X111229999Y-69395914D02*
X111196666Y-69424485D01*
X111196666Y-69424485D02*
X111129999Y-69453057D01*
X111129999Y-69453057D02*
X110863332Y-69453057D01*
X111963332Y-69681628D02*
X111929999Y-69710200D01*
X111929999Y-69710200D02*
X111829999Y-69738771D01*
X111829999Y-69738771D02*
X111763332Y-69738771D01*
X111763332Y-69738771D02*
X111663332Y-69710200D01*
X111663332Y-69710200D02*
X111596666Y-69653057D01*
X111596666Y-69653057D02*
X111563332Y-69595914D01*
X111563332Y-69595914D02*
X111529999Y-69481628D01*
X111529999Y-69481628D02*
X111529999Y-69395914D01*
X111529999Y-69395914D02*
X111563332Y-69281628D01*
X111563332Y-69281628D02*
X111596666Y-69224485D01*
X111596666Y-69224485D02*
X111663332Y-69167342D01*
X111663332Y-69167342D02*
X111763332Y-69138771D01*
X111763332Y-69138771D02*
X111829999Y-69138771D01*
X111829999Y-69138771D02*
X111929999Y-69167342D01*
X111929999Y-69167342D02*
X111963332Y-69195914D01*
X112229999Y-69567342D02*
X112563332Y-69567342D01*
X112163332Y-69738771D02*
X112396666Y-69138771D01*
X112396666Y-69138771D02*
X112629999Y-69738771D01*
X112896666Y-69738771D02*
X113029999Y-69738771D01*
X113029999Y-69738771D02*
X113096666Y-69710200D01*
X113096666Y-69710200D02*
X113129999Y-69681628D01*
X113129999Y-69681628D02*
X113196666Y-69595914D01*
X113196666Y-69595914D02*
X113229999Y-69481628D01*
X113229999Y-69481628D02*
X113229999Y-69253057D01*
X113229999Y-69253057D02*
X113196666Y-69195914D01*
X113196666Y-69195914D02*
X113163332Y-69167342D01*
X113163332Y-69167342D02*
X113096666Y-69138771D01*
X113096666Y-69138771D02*
X112963332Y-69138771D01*
X112963332Y-69138771D02*
X112896666Y-69167342D01*
X112896666Y-69167342D02*
X112863332Y-69195914D01*
X112863332Y-69195914D02*
X112829999Y-69253057D01*
X112829999Y-69253057D02*
X112829999Y-69395914D01*
X112829999Y-69395914D02*
X112863332Y-69453057D01*
X112863332Y-69453057D02*
X112896666Y-69481628D01*
X112896666Y-69481628D02*
X112963332Y-69510200D01*
X112963332Y-69510200D02*
X113096666Y-69510200D01*
X113096666Y-69510200D02*
X113163332Y-69481628D01*
X113163332Y-69481628D02*
X113196666Y-69453057D01*
X113196666Y-69453057D02*
X113229999Y-69395914D01*
X113829999Y-69138771D02*
X113696666Y-69138771D01*
X113696666Y-69138771D02*
X113629999Y-69167342D01*
X113629999Y-69167342D02*
X113596666Y-69195914D01*
X113596666Y-69195914D02*
X113529999Y-69281628D01*
X113529999Y-69281628D02*
X113496666Y-69395914D01*
X113496666Y-69395914D02*
X113496666Y-69624485D01*
X113496666Y-69624485D02*
X113529999Y-69681628D01*
X113529999Y-69681628D02*
X113563333Y-69710200D01*
X113563333Y-69710200D02*
X113629999Y-69738771D01*
X113629999Y-69738771D02*
X113763333Y-69738771D01*
X113763333Y-69738771D02*
X113829999Y-69710200D01*
X113829999Y-69710200D02*
X113863333Y-69681628D01*
X113863333Y-69681628D02*
X113896666Y-69624485D01*
X113896666Y-69624485D02*
X113896666Y-69481628D01*
X113896666Y-69481628D02*
X113863333Y-69424485D01*
X113863333Y-69424485D02*
X113829999Y-69395914D01*
X113829999Y-69395914D02*
X113763333Y-69367342D01*
X113763333Y-69367342D02*
X113629999Y-69367342D01*
X113629999Y-69367342D02*
X113563333Y-69395914D01*
X113563333Y-69395914D02*
X113529999Y-69424485D01*
X113529999Y-69424485D02*
X113496666Y-69481628D01*
X114296666Y-69395914D02*
X114230000Y-69367342D01*
X114230000Y-69367342D02*
X114196666Y-69338771D01*
X114196666Y-69338771D02*
X114163333Y-69281628D01*
X114163333Y-69281628D02*
X114163333Y-69253057D01*
X114163333Y-69253057D02*
X114196666Y-69195914D01*
X114196666Y-69195914D02*
X114230000Y-69167342D01*
X114230000Y-69167342D02*
X114296666Y-69138771D01*
X114296666Y-69138771D02*
X114430000Y-69138771D01*
X114430000Y-69138771D02*
X114496666Y-69167342D01*
X114496666Y-69167342D02*
X114530000Y-69195914D01*
X114530000Y-69195914D02*
X114563333Y-69253057D01*
X114563333Y-69253057D02*
X114563333Y-69281628D01*
X114563333Y-69281628D02*
X114530000Y-69338771D01*
X114530000Y-69338771D02*
X114496666Y-69367342D01*
X114496666Y-69367342D02*
X114430000Y-69395914D01*
X114430000Y-69395914D02*
X114296666Y-69395914D01*
X114296666Y-69395914D02*
X114230000Y-69424485D01*
X114230000Y-69424485D02*
X114196666Y-69453057D01*
X114196666Y-69453057D02*
X114163333Y-69510200D01*
X114163333Y-69510200D02*
X114163333Y-69624485D01*
X114163333Y-69624485D02*
X114196666Y-69681628D01*
X114196666Y-69681628D02*
X114230000Y-69710200D01*
X114230000Y-69710200D02*
X114296666Y-69738771D01*
X114296666Y-69738771D02*
X114430000Y-69738771D01*
X114430000Y-69738771D02*
X114496666Y-69710200D01*
X114496666Y-69710200D02*
X114530000Y-69681628D01*
X114530000Y-69681628D02*
X114563333Y-69624485D01*
X114563333Y-69624485D02*
X114563333Y-69510200D01*
X114563333Y-69510200D02*
X114530000Y-69453057D01*
X114530000Y-69453057D02*
X114496666Y-69424485D01*
X114496666Y-69424485D02*
X114430000Y-69395914D01*
X115196667Y-69138771D02*
X114863333Y-69138771D01*
X114863333Y-69138771D02*
X114830000Y-69424485D01*
X114830000Y-69424485D02*
X114863333Y-69395914D01*
X114863333Y-69395914D02*
X114930000Y-69367342D01*
X114930000Y-69367342D02*
X115096667Y-69367342D01*
X115096667Y-69367342D02*
X115163333Y-69395914D01*
X115163333Y-69395914D02*
X115196667Y-69424485D01*
X115196667Y-69424485D02*
X115230000Y-69481628D01*
X115230000Y-69481628D02*
X115230000Y-69624485D01*
X115230000Y-69624485D02*
X115196667Y-69681628D01*
X115196667Y-69681628D02*
X115163333Y-69710200D01*
X115163333Y-69710200D02*
X115096667Y-69738771D01*
X115096667Y-69738771D02*
X114930000Y-69738771D01*
X114930000Y-69738771D02*
X114863333Y-69710200D01*
X114863333Y-69710200D02*
X114830000Y-69681628D01*
D11*
X123119429Y-101624957D02*
X122690857Y-101624957D01*
X122690857Y-101624957D02*
X122690857Y-100724957D01*
X123419428Y-101153528D02*
X123719428Y-101153528D01*
X123848000Y-101624957D02*
X123419428Y-101624957D01*
X123419428Y-101624957D02*
X123419428Y-100724957D01*
X123419428Y-100724957D02*
X123848000Y-100724957D01*
X124233714Y-101624957D02*
X124233714Y-100724957D01*
X124233714Y-100724957D02*
X124448000Y-100724957D01*
X124448000Y-100724957D02*
X124576571Y-100767814D01*
X124576571Y-100767814D02*
X124662286Y-100853528D01*
X124662286Y-100853528D02*
X124705143Y-100939242D01*
X124705143Y-100939242D02*
X124748000Y-101110671D01*
X124748000Y-101110671D02*
X124748000Y-101239242D01*
X124748000Y-101239242D02*
X124705143Y-101410671D01*
X124705143Y-101410671D02*
X124662286Y-101496385D01*
X124662286Y-101496385D02*
X124576571Y-101582100D01*
X124576571Y-101582100D02*
X124448000Y-101624957D01*
X124448000Y-101624957D02*
X124233714Y-101624957D01*
X131935100Y-111917856D02*
X131977957Y-111994047D01*
X131977957Y-111994047D02*
X131977957Y-112146428D01*
X131977957Y-112146428D02*
X131935100Y-112222618D01*
X131935100Y-112222618D02*
X131849385Y-112260714D01*
X131849385Y-112260714D02*
X131506528Y-112260714D01*
X131506528Y-112260714D02*
X131420814Y-112222618D01*
X131420814Y-112222618D02*
X131377957Y-112146428D01*
X131377957Y-112146428D02*
X131377957Y-111994047D01*
X131377957Y-111994047D02*
X131420814Y-111917856D01*
X131420814Y-111917856D02*
X131506528Y-111879761D01*
X131506528Y-111879761D02*
X131592242Y-111879761D01*
X131592242Y-111879761D02*
X131677957Y-112260714D01*
X131377957Y-111536904D02*
X131977957Y-111536904D01*
X131463671Y-111536904D02*
X131420814Y-111498809D01*
X131420814Y-111498809D02*
X131377957Y-111422619D01*
X131377957Y-111422619D02*
X131377957Y-111308333D01*
X131377957Y-111308333D02*
X131420814Y-111232142D01*
X131420814Y-111232142D02*
X131506528Y-111194047D01*
X131506528Y-111194047D02*
X131977957Y-111194047D01*
X131720814Y-110851190D02*
X131720814Y-110470237D01*
X131977957Y-110927380D02*
X131077957Y-110660713D01*
X131077957Y-110660713D02*
X131977957Y-110394047D01*
X131977957Y-109517856D02*
X131077957Y-109517856D01*
X131977957Y-109136904D02*
X131077957Y-109136904D01*
X131077957Y-109136904D02*
X131977957Y-108679761D01*
X131977957Y-108679761D02*
X131077957Y-108679761D01*
X131977957Y-107879762D02*
X131977957Y-108336905D01*
X131977957Y-108108333D02*
X131077957Y-108108333D01*
X131077957Y-108108333D02*
X131206528Y-108184524D01*
X131206528Y-108184524D02*
X131292242Y-108260714D01*
X131292242Y-108260714D02*
X131335100Y-108336905D01*
X131977957Y-106927380D02*
X131077957Y-106927380D01*
X131977957Y-106546428D02*
X131077957Y-106546428D01*
X131077957Y-106546428D02*
X131977957Y-106089285D01*
X131977957Y-106089285D02*
X131077957Y-106089285D01*
X131163671Y-105746429D02*
X131120814Y-105708333D01*
X131120814Y-105708333D02*
X131077957Y-105632143D01*
X131077957Y-105632143D02*
X131077957Y-105441667D01*
X131077957Y-105441667D02*
X131120814Y-105365476D01*
X131120814Y-105365476D02*
X131163671Y-105327381D01*
X131163671Y-105327381D02*
X131249385Y-105289286D01*
X131249385Y-105289286D02*
X131335100Y-105289286D01*
X131335100Y-105289286D02*
X131463671Y-105327381D01*
X131463671Y-105327381D02*
X131977957Y-105784524D01*
X131977957Y-105784524D02*
X131977957Y-105289286D01*
X131977957Y-104336904D02*
X131077957Y-104336904D01*
X131977957Y-103955952D02*
X131077957Y-103955952D01*
X131077957Y-103955952D02*
X131977957Y-103498809D01*
X131977957Y-103498809D02*
X131077957Y-103498809D01*
X131077957Y-103194048D02*
X131077957Y-102698810D01*
X131077957Y-102698810D02*
X131420814Y-102965476D01*
X131420814Y-102965476D02*
X131420814Y-102851191D01*
X131420814Y-102851191D02*
X131463671Y-102775000D01*
X131463671Y-102775000D02*
X131506528Y-102736905D01*
X131506528Y-102736905D02*
X131592242Y-102698810D01*
X131592242Y-102698810D02*
X131806528Y-102698810D01*
X131806528Y-102698810D02*
X131892242Y-102736905D01*
X131892242Y-102736905D02*
X131935100Y-102775000D01*
X131935100Y-102775000D02*
X131977957Y-102851191D01*
X131977957Y-102851191D02*
X131977957Y-103079762D01*
X131977957Y-103079762D02*
X131935100Y-103155953D01*
X131935100Y-103155953D02*
X131892242Y-103194048D01*
X131977957Y-101746428D02*
X131077957Y-101746428D01*
X131977957Y-101365476D02*
X131077957Y-101365476D01*
X131077957Y-101365476D02*
X131977957Y-100908333D01*
X131977957Y-100908333D02*
X131077957Y-100908333D01*
X131377957Y-100184524D02*
X131977957Y-100184524D01*
X131035100Y-100375000D02*
X131677957Y-100565477D01*
X131677957Y-100565477D02*
X131677957Y-100070238D01*
X131935100Y-98851190D02*
X131977957Y-98927381D01*
X131977957Y-98927381D02*
X131977957Y-99079762D01*
X131977957Y-99079762D02*
X131935100Y-99155952D01*
X131935100Y-99155952D02*
X131849385Y-99194048D01*
X131849385Y-99194048D02*
X131506528Y-99194048D01*
X131506528Y-99194048D02*
X131420814Y-99155952D01*
X131420814Y-99155952D02*
X131377957Y-99079762D01*
X131377957Y-99079762D02*
X131377957Y-98927381D01*
X131377957Y-98927381D02*
X131420814Y-98851190D01*
X131420814Y-98851190D02*
X131506528Y-98813095D01*
X131506528Y-98813095D02*
X131592242Y-98813095D01*
X131592242Y-98813095D02*
X131677957Y-99194048D01*
X131377957Y-98470238D02*
X131977957Y-98470238D01*
X131463671Y-98470238D02*
X131420814Y-98432143D01*
X131420814Y-98432143D02*
X131377957Y-98355953D01*
X131377957Y-98355953D02*
X131377957Y-98241667D01*
X131377957Y-98241667D02*
X131420814Y-98165476D01*
X131420814Y-98165476D02*
X131506528Y-98127381D01*
X131506528Y-98127381D02*
X131977957Y-98127381D01*
X131506528Y-97479762D02*
X131549385Y-97365476D01*
X131549385Y-97365476D02*
X131592242Y-97327381D01*
X131592242Y-97327381D02*
X131677957Y-97289285D01*
X131677957Y-97289285D02*
X131806528Y-97289285D01*
X131806528Y-97289285D02*
X131892242Y-97327381D01*
X131892242Y-97327381D02*
X131935100Y-97365476D01*
X131935100Y-97365476D02*
X131977957Y-97441666D01*
X131977957Y-97441666D02*
X131977957Y-97746428D01*
X131977957Y-97746428D02*
X131077957Y-97746428D01*
X131077957Y-97746428D02*
X131077957Y-97479762D01*
X131077957Y-97479762D02*
X131120814Y-97403571D01*
X131120814Y-97403571D02*
X131163671Y-97365476D01*
X131163671Y-97365476D02*
X131249385Y-97327381D01*
X131249385Y-97327381D02*
X131335100Y-97327381D01*
X131335100Y-97327381D02*
X131420814Y-97365476D01*
X131420814Y-97365476D02*
X131463671Y-97403571D01*
X131463671Y-97403571D02*
X131506528Y-97479762D01*
X131506528Y-97479762D02*
X131506528Y-97746428D01*
D15*
X124193380Y-105914234D02*
X125488619Y-105914234D01*
X124840999Y-106561853D02*
X124840999Y-105266615D01*
D14*
X127029066Y-94128664D02*
X126995733Y-94195331D01*
X126995733Y-94195331D02*
X126995733Y-94295331D01*
X126995733Y-94295331D02*
X127029066Y-94395331D01*
X127029066Y-94395331D02*
X127095733Y-94461998D01*
X127095733Y-94461998D02*
X127162400Y-94495331D01*
X127162400Y-94495331D02*
X127295733Y-94528664D01*
X127295733Y-94528664D02*
X127395733Y-94528664D01*
X127395733Y-94528664D02*
X127529066Y-94495331D01*
X127529066Y-94495331D02*
X127595733Y-94461998D01*
X127595733Y-94461998D02*
X127662400Y-94395331D01*
X127662400Y-94395331D02*
X127695733Y-94295331D01*
X127695733Y-94295331D02*
X127695733Y-94228664D01*
X127695733Y-94228664D02*
X127662400Y-94128664D01*
X127662400Y-94128664D02*
X127629066Y-94095331D01*
X127629066Y-94095331D02*
X127395733Y-94095331D01*
X127395733Y-94095331D02*
X127395733Y-94228664D01*
X127695733Y-93795331D02*
X126995733Y-93795331D01*
X126995733Y-93795331D02*
X127695733Y-93395331D01*
X127695733Y-93395331D02*
X126995733Y-93395331D01*
X127695733Y-93061998D02*
X126995733Y-93061998D01*
X126995733Y-93061998D02*
X126995733Y-92895331D01*
X126995733Y-92895331D02*
X127029066Y-92795331D01*
X127029066Y-92795331D02*
X127095733Y-92728665D01*
X127095733Y-92728665D02*
X127162400Y-92695331D01*
X127162400Y-92695331D02*
X127295733Y-92661998D01*
X127295733Y-92661998D02*
X127395733Y-92661998D01*
X127395733Y-92661998D02*
X127529066Y-92695331D01*
X127529066Y-92695331D02*
X127595733Y-92728665D01*
X127595733Y-92728665D02*
X127662400Y-92795331D01*
X127662400Y-92795331D02*
X127695733Y-92895331D01*
X127695733Y-92895331D02*
X127695733Y-93061998D01*
X127662400Y-91561998D02*
X127695733Y-91628665D01*
X127695733Y-91628665D02*
X127695733Y-91761998D01*
X127695733Y-91761998D02*
X127662400Y-91828665D01*
X127662400Y-91828665D02*
X127595733Y-91861998D01*
X127595733Y-91861998D02*
X127329066Y-91861998D01*
X127329066Y-91861998D02*
X127262400Y-91828665D01*
X127262400Y-91828665D02*
X127229066Y-91761998D01*
X127229066Y-91761998D02*
X127229066Y-91628665D01*
X127229066Y-91628665D02*
X127262400Y-91561998D01*
X127262400Y-91561998D02*
X127329066Y-91528665D01*
X127329066Y-91528665D02*
X127395733Y-91528665D01*
X127395733Y-91528665D02*
X127462400Y-91861998D01*
X127662400Y-90928665D02*
X127695733Y-90995332D01*
X127695733Y-90995332D02*
X127695733Y-91128665D01*
X127695733Y-91128665D02*
X127662400Y-91195332D01*
X127662400Y-91195332D02*
X127629066Y-91228665D01*
X127629066Y-91228665D02*
X127562400Y-91261998D01*
X127562400Y-91261998D02*
X127362400Y-91261998D01*
X127362400Y-91261998D02*
X127295733Y-91228665D01*
X127295733Y-91228665D02*
X127262400Y-91195332D01*
X127262400Y-91195332D02*
X127229066Y-91128665D01*
X127229066Y-91128665D02*
X127229066Y-90995332D01*
X127229066Y-90995332D02*
X127262400Y-90928665D01*
X127695733Y-90628665D02*
X126995733Y-90628665D01*
X127695733Y-90328665D02*
X127329066Y-90328665D01*
X127329066Y-90328665D02*
X127262400Y-90361998D01*
X127262400Y-90361998D02*
X127229066Y-90428665D01*
X127229066Y-90428665D02*
X127229066Y-90528665D01*
X127229066Y-90528665D02*
X127262400Y-90595332D01*
X127262400Y-90595332D02*
X127295733Y-90628665D01*
X127695733Y-89895332D02*
X127662400Y-89961999D01*
X127662400Y-89961999D02*
X127629066Y-89995332D01*
X127629066Y-89995332D02*
X127562400Y-90028665D01*
X127562400Y-90028665D02*
X127362400Y-90028665D01*
X127362400Y-90028665D02*
X127295733Y-89995332D01*
X127295733Y-89995332D02*
X127262400Y-89961999D01*
X127262400Y-89961999D02*
X127229066Y-89895332D01*
X127229066Y-89895332D02*
X127229066Y-89795332D01*
X127229066Y-89795332D02*
X127262400Y-89728665D01*
X127262400Y-89728665D02*
X127295733Y-89695332D01*
X127295733Y-89695332D02*
X127362400Y-89661999D01*
X127362400Y-89661999D02*
X127562400Y-89661999D01*
X127562400Y-89661999D02*
X127629066Y-89695332D01*
X127629066Y-89695332D02*
X127662400Y-89728665D01*
X127662400Y-89728665D02*
X127695733Y-89795332D01*
X127695733Y-89795332D02*
X127695733Y-89895332D01*
X127229066Y-88928666D02*
X127229066Y-88661999D01*
X126995733Y-88828666D02*
X127595733Y-88828666D01*
X127595733Y-88828666D02*
X127662400Y-88795333D01*
X127662400Y-88795333D02*
X127695733Y-88728666D01*
X127695733Y-88728666D02*
X127695733Y-88661999D01*
X127695733Y-88428666D02*
X127229066Y-88428666D01*
X127362400Y-88428666D02*
X127295733Y-88395333D01*
X127295733Y-88395333D02*
X127262400Y-88361999D01*
X127262400Y-88361999D02*
X127229066Y-88295333D01*
X127229066Y-88295333D02*
X127229066Y-88228666D01*
X127695733Y-87995333D02*
X127229066Y-87995333D01*
X126995733Y-87995333D02*
X127029066Y-88028666D01*
X127029066Y-88028666D02*
X127062400Y-87995333D01*
X127062400Y-87995333D02*
X127029066Y-87962000D01*
X127029066Y-87962000D02*
X126995733Y-87995333D01*
X126995733Y-87995333D02*
X127062400Y-87995333D01*
X127229066Y-87362000D02*
X127795733Y-87362000D01*
X127795733Y-87362000D02*
X127862400Y-87395333D01*
X127862400Y-87395333D02*
X127895733Y-87428667D01*
X127895733Y-87428667D02*
X127929066Y-87495333D01*
X127929066Y-87495333D02*
X127929066Y-87595333D01*
X127929066Y-87595333D02*
X127895733Y-87662000D01*
X127662400Y-87362000D02*
X127695733Y-87428667D01*
X127695733Y-87428667D02*
X127695733Y-87562000D01*
X127695733Y-87562000D02*
X127662400Y-87628667D01*
X127662400Y-87628667D02*
X127629066Y-87662000D01*
X127629066Y-87662000D02*
X127562400Y-87695333D01*
X127562400Y-87695333D02*
X127362400Y-87695333D01*
X127362400Y-87695333D02*
X127295733Y-87662000D01*
X127295733Y-87662000D02*
X127262400Y-87628667D01*
X127262400Y-87628667D02*
X127229066Y-87562000D01*
X127229066Y-87562000D02*
X127229066Y-87428667D01*
X127229066Y-87428667D02*
X127262400Y-87362000D01*
X126995733Y-86595334D02*
X127695733Y-86362001D01*
X127695733Y-86362001D02*
X126995733Y-86128667D01*
X127629066Y-85495334D02*
X127662400Y-85528667D01*
X127662400Y-85528667D02*
X127695733Y-85628667D01*
X127695733Y-85628667D02*
X127695733Y-85695334D01*
X127695733Y-85695334D02*
X127662400Y-85795334D01*
X127662400Y-85795334D02*
X127595733Y-85862001D01*
X127595733Y-85862001D02*
X127529066Y-85895334D01*
X127529066Y-85895334D02*
X127395733Y-85928667D01*
X127395733Y-85928667D02*
X127295733Y-85928667D01*
X127295733Y-85928667D02*
X127162400Y-85895334D01*
X127162400Y-85895334D02*
X127095733Y-85862001D01*
X127095733Y-85862001D02*
X127029066Y-85795334D01*
X127029066Y-85795334D02*
X126995733Y-85695334D01*
X126995733Y-85695334D02*
X126995733Y-85628667D01*
X126995733Y-85628667D02*
X127029066Y-85528667D01*
X127029066Y-85528667D02*
X127062400Y-85495334D01*
X127629066Y-84795334D02*
X127662400Y-84828667D01*
X127662400Y-84828667D02*
X127695733Y-84928667D01*
X127695733Y-84928667D02*
X127695733Y-84995334D01*
X127695733Y-84995334D02*
X127662400Y-85095334D01*
X127662400Y-85095334D02*
X127595733Y-85162001D01*
X127595733Y-85162001D02*
X127529066Y-85195334D01*
X127529066Y-85195334D02*
X127395733Y-85228667D01*
X127395733Y-85228667D02*
X127295733Y-85228667D01*
X127295733Y-85228667D02*
X127162400Y-85195334D01*
X127162400Y-85195334D02*
X127095733Y-85162001D01*
X127095733Y-85162001D02*
X127029066Y-85095334D01*
X127029066Y-85095334D02*
X126995733Y-84995334D01*
X126995733Y-84995334D02*
X126995733Y-84928667D01*
X126995733Y-84928667D02*
X127029066Y-84828667D01*
X127029066Y-84828667D02*
X127062400Y-84795334D01*
D12*
X118807283Y-67686993D02*
X119271569Y-67686993D01*
X119271569Y-67686993D02*
X119021569Y-67953660D01*
X119021569Y-67953660D02*
X119128712Y-67953660D01*
X119128712Y-67953660D02*
X119200141Y-67986993D01*
X119200141Y-67986993D02*
X119235855Y-68020326D01*
X119235855Y-68020326D02*
X119271569Y-68086993D01*
X119271569Y-68086993D02*
X119271569Y-68253660D01*
X119271569Y-68253660D02*
X119235855Y-68320326D01*
X119235855Y-68320326D02*
X119200141Y-68353660D01*
X119200141Y-68353660D02*
X119128712Y-68386993D01*
X119128712Y-68386993D02*
X118914426Y-68386993D01*
X118914426Y-68386993D02*
X118842998Y-68353660D01*
X118842998Y-68353660D02*
X118807283Y-68320326D01*
X119485855Y-67686993D02*
X119735855Y-68386993D01*
X119735855Y-68386993D02*
X119985855Y-67686993D01*
X120164426Y-67686993D02*
X120628712Y-67686993D01*
X120628712Y-67686993D02*
X120378712Y-67953660D01*
X120378712Y-67953660D02*
X120485855Y-67953660D01*
X120485855Y-67953660D02*
X120557284Y-67986993D01*
X120557284Y-67986993D02*
X120592998Y-68020326D01*
X120592998Y-68020326D02*
X120628712Y-68086993D01*
X120628712Y-68086993D02*
X120628712Y-68253660D01*
X120628712Y-68253660D02*
X120592998Y-68320326D01*
X120592998Y-68320326D02*
X120557284Y-68353660D01*
X120557284Y-68353660D02*
X120485855Y-68386993D01*
X120485855Y-68386993D02*
X120271569Y-68386993D01*
X120271569Y-68386993D02*
X120200141Y-68353660D01*
X120200141Y-68353660D02*
X120164426Y-68320326D01*
X121485856Y-68353660D02*
X121592999Y-68386993D01*
X121592999Y-68386993D02*
X121771570Y-68386993D01*
X121771570Y-68386993D02*
X121842999Y-68353660D01*
X121842999Y-68353660D02*
X121878713Y-68320326D01*
X121878713Y-68320326D02*
X121914427Y-68253660D01*
X121914427Y-68253660D02*
X121914427Y-68186993D01*
X121914427Y-68186993D02*
X121878713Y-68120326D01*
X121878713Y-68120326D02*
X121842999Y-68086993D01*
X121842999Y-68086993D02*
X121771570Y-68053660D01*
X121771570Y-68053660D02*
X121628713Y-68020326D01*
X121628713Y-68020326D02*
X121557284Y-67986993D01*
X121557284Y-67986993D02*
X121521570Y-67953660D01*
X121521570Y-67953660D02*
X121485856Y-67886993D01*
X121485856Y-67886993D02*
X121485856Y-67820326D01*
X121485856Y-67820326D02*
X121521570Y-67753660D01*
X121521570Y-67753660D02*
X121557284Y-67720326D01*
X121557284Y-67720326D02*
X121628713Y-67686993D01*
X121628713Y-67686993D02*
X121807284Y-67686993D01*
X121807284Y-67686993D02*
X121914427Y-67720326D01*
X122235856Y-68386993D02*
X122235856Y-67686993D01*
X122235856Y-67686993D02*
X122414427Y-67686993D01*
X122414427Y-67686993D02*
X122521570Y-67720326D01*
X122521570Y-67720326D02*
X122592999Y-67786993D01*
X122592999Y-67786993D02*
X122628713Y-67853660D01*
X122628713Y-67853660D02*
X122664427Y-67986993D01*
X122664427Y-67986993D02*
X122664427Y-68086993D01*
X122664427Y-68086993D02*
X122628713Y-68220326D01*
X122628713Y-68220326D02*
X122592999Y-68286993D01*
X122592999Y-68286993D02*
X122521570Y-68353660D01*
X122521570Y-68353660D02*
X122414427Y-68386993D01*
X122414427Y-68386993D02*
X122235856Y-68386993D01*
X122950142Y-68186993D02*
X123307285Y-68186993D01*
X122878713Y-68386993D02*
X123128713Y-67686993D01*
X123128713Y-67686993D02*
X123378713Y-68386993D01*
X124164428Y-68353660D02*
X124271571Y-68386993D01*
X124271571Y-68386993D02*
X124450142Y-68386993D01*
X124450142Y-68386993D02*
X124521571Y-68353660D01*
X124521571Y-68353660D02*
X124557285Y-68320326D01*
X124557285Y-68320326D02*
X124592999Y-68253660D01*
X124592999Y-68253660D02*
X124592999Y-68186993D01*
X124592999Y-68186993D02*
X124557285Y-68120326D01*
X124557285Y-68120326D02*
X124521571Y-68086993D01*
X124521571Y-68086993D02*
X124450142Y-68053660D01*
X124450142Y-68053660D02*
X124307285Y-68020326D01*
X124307285Y-68020326D02*
X124235856Y-67986993D01*
X124235856Y-67986993D02*
X124200142Y-67953660D01*
X124200142Y-67953660D02*
X124164428Y-67886993D01*
X124164428Y-67886993D02*
X124164428Y-67820326D01*
X124164428Y-67820326D02*
X124200142Y-67753660D01*
X124200142Y-67753660D02*
X124235856Y-67720326D01*
X124235856Y-67720326D02*
X124307285Y-67686993D01*
X124307285Y-67686993D02*
X124485856Y-67686993D01*
X124485856Y-67686993D02*
X124592999Y-67720326D01*
X125342999Y-68320326D02*
X125307285Y-68353660D01*
X125307285Y-68353660D02*
X125200142Y-68386993D01*
X125200142Y-68386993D02*
X125128714Y-68386993D01*
X125128714Y-68386993D02*
X125021571Y-68353660D01*
X125021571Y-68353660D02*
X124950142Y-68286993D01*
X124950142Y-68286993D02*
X124914428Y-68220326D01*
X124914428Y-68220326D02*
X124878714Y-68086993D01*
X124878714Y-68086993D02*
X124878714Y-67986993D01*
X124878714Y-67986993D02*
X124914428Y-67853660D01*
X124914428Y-67853660D02*
X124950142Y-67786993D01*
X124950142Y-67786993D02*
X125021571Y-67720326D01*
X125021571Y-67720326D02*
X125128714Y-67686993D01*
X125128714Y-67686993D02*
X125200142Y-67686993D01*
X125200142Y-67686993D02*
X125307285Y-67720326D01*
X125307285Y-67720326D02*
X125342999Y-67753660D01*
X126021571Y-68386993D02*
X125664428Y-68386993D01*
X125664428Y-68386993D02*
X125664428Y-67686993D01*
X129521573Y-67720326D02*
X129450145Y-67686993D01*
X129450145Y-67686993D02*
X129343002Y-67686993D01*
X129343002Y-67686993D02*
X129235859Y-67720326D01*
X129235859Y-67720326D02*
X129164430Y-67786993D01*
X129164430Y-67786993D02*
X129128716Y-67853660D01*
X129128716Y-67853660D02*
X129093002Y-67986993D01*
X129093002Y-67986993D02*
X129093002Y-68086993D01*
X129093002Y-68086993D02*
X129128716Y-68220326D01*
X129128716Y-68220326D02*
X129164430Y-68286993D01*
X129164430Y-68286993D02*
X129235859Y-68353660D01*
X129235859Y-68353660D02*
X129343002Y-68386993D01*
X129343002Y-68386993D02*
X129414430Y-68386993D01*
X129414430Y-68386993D02*
X129521573Y-68353660D01*
X129521573Y-68353660D02*
X129557287Y-68320326D01*
X129557287Y-68320326D02*
X129557287Y-68086993D01*
X129557287Y-68086993D02*
X129414430Y-68086993D01*
X129878716Y-68386993D02*
X129878716Y-67686993D01*
X129878716Y-67686993D02*
X130307287Y-68386993D01*
X130307287Y-68386993D02*
X130307287Y-67686993D01*
X130664430Y-68386993D02*
X130664430Y-67686993D01*
X130664430Y-67686993D02*
X130843001Y-67686993D01*
X130843001Y-67686993D02*
X130950144Y-67720326D01*
X130950144Y-67720326D02*
X131021573Y-67786993D01*
X131021573Y-67786993D02*
X131057287Y-67853660D01*
X131057287Y-67853660D02*
X131093001Y-67986993D01*
X131093001Y-67986993D02*
X131093001Y-68086993D01*
X131093001Y-68086993D02*
X131057287Y-68220326D01*
X131057287Y-68220326D02*
X131021573Y-68286993D01*
X131021573Y-68286993D02*
X130950144Y-68353660D01*
X130950144Y-68353660D02*
X130843001Y-68386993D01*
X130843001Y-68386993D02*
X130664430Y-68386993D01*
D15*
X111958635Y-95016000D02*
X111196730Y-95716000D01*
X111958635Y-96216000D02*
X110358635Y-96216000D01*
X110358635Y-96216000D02*
X110358635Y-95416000D01*
X110358635Y-95416000D02*
X110434825Y-95216000D01*
X110434825Y-95216000D02*
X110511016Y-95116000D01*
X110511016Y-95116000D02*
X110663397Y-95016000D01*
X110663397Y-95016000D02*
X110891968Y-95016000D01*
X110891968Y-95016000D02*
X111044349Y-95116000D01*
X111044349Y-95116000D02*
X111120540Y-95216000D01*
X111120540Y-95216000D02*
X111196730Y-95416000D01*
X111196730Y-95416000D02*
X111196730Y-96216000D01*
X111958635Y-94116000D02*
X110358635Y-94116000D01*
X110358635Y-94116000D02*
X110358635Y-93316000D01*
X110358635Y-93316000D02*
X110434825Y-93116000D01*
X110434825Y-93116000D02*
X110511016Y-93016000D01*
X110511016Y-93016000D02*
X110663397Y-92916000D01*
X110663397Y-92916000D02*
X110891968Y-92916000D01*
X110891968Y-92916000D02*
X111044349Y-93016000D01*
X111044349Y-93016000D02*
X111120540Y-93116000D01*
X111120540Y-93116000D02*
X111196730Y-93316000D01*
X111196730Y-93316000D02*
X111196730Y-94116000D01*
X111958635Y-92016000D02*
X110891968Y-92016000D01*
X110358635Y-92016000D02*
X110434825Y-92116000D01*
X110434825Y-92116000D02*
X110511016Y-92016000D01*
X110511016Y-92016000D02*
X110434825Y-91916000D01*
X110434825Y-91916000D02*
X110358635Y-92016000D01*
X110358635Y-92016000D02*
X110511016Y-92016000D01*
X111349111Y-91016000D02*
X111349111Y-89416000D01*
X110891968Y-88716000D02*
X110891968Y-87916000D01*
X111958635Y-88416000D02*
X110587206Y-88416000D01*
X110587206Y-88416000D02*
X110434825Y-88316000D01*
X110434825Y-88316000D02*
X110358635Y-88116000D01*
X110358635Y-88116000D02*
X110358635Y-87916000D01*
X111958635Y-86916000D02*
X111882445Y-87116000D01*
X111882445Y-87116000D02*
X111730064Y-87216000D01*
X111730064Y-87216000D02*
X110358635Y-87216000D01*
X111882445Y-85316000D02*
X111958635Y-85516000D01*
X111958635Y-85516000D02*
X111958635Y-85916000D01*
X111958635Y-85916000D02*
X111882445Y-86116000D01*
X111882445Y-86116000D02*
X111730064Y-86216000D01*
X111730064Y-86216000D02*
X111120540Y-86216000D01*
X111120540Y-86216000D02*
X110968159Y-86116000D01*
X110968159Y-86116000D02*
X110891968Y-85916000D01*
X110891968Y-85916000D02*
X110891968Y-85516000D01*
X110891968Y-85516000D02*
X110968159Y-85316000D01*
X110968159Y-85316000D02*
X111120540Y-85216000D01*
X111120540Y-85216000D02*
X111272921Y-85216000D01*
X111272921Y-85216000D02*
X111425302Y-86216000D01*
X111958635Y-84516000D02*
X110891968Y-83416000D01*
X110891968Y-84516000D02*
X111958635Y-83416000D01*
X114534545Y-96666000D02*
X112934545Y-96666000D01*
X112934545Y-96666000D02*
X112934545Y-95866000D01*
X112934545Y-95866000D02*
X113010735Y-95666000D01*
X113010735Y-95666000D02*
X113086926Y-95566000D01*
X113086926Y-95566000D02*
X113239307Y-95466000D01*
X113239307Y-95466000D02*
X113467878Y-95466000D01*
X113467878Y-95466000D02*
X113620259Y-95566000D01*
X113620259Y-95566000D02*
X113696450Y-95666000D01*
X113696450Y-95666000D02*
X113772640Y-95866000D01*
X113772640Y-95866000D02*
X113772640Y-96666000D01*
X114382164Y-93366000D02*
X114458355Y-93466000D01*
X114458355Y-93466000D02*
X114534545Y-93766000D01*
X114534545Y-93766000D02*
X114534545Y-93966000D01*
X114534545Y-93966000D02*
X114458355Y-94266000D01*
X114458355Y-94266000D02*
X114305974Y-94466000D01*
X114305974Y-94466000D02*
X114153593Y-94566000D01*
X114153593Y-94566000D02*
X113848831Y-94666000D01*
X113848831Y-94666000D02*
X113620259Y-94666000D01*
X113620259Y-94666000D02*
X113315497Y-94566000D01*
X113315497Y-94566000D02*
X113163116Y-94466000D01*
X113163116Y-94466000D02*
X113010735Y-94266000D01*
X113010735Y-94266000D02*
X112934545Y-93966000D01*
X112934545Y-93966000D02*
X112934545Y-93766000D01*
X112934545Y-93766000D02*
X113010735Y-93466000D01*
X113010735Y-93466000D02*
X113086926Y-93366000D01*
X113696450Y-91766000D02*
X113772640Y-91466000D01*
X113772640Y-91466000D02*
X113848831Y-91366000D01*
X113848831Y-91366000D02*
X114001212Y-91266000D01*
X114001212Y-91266000D02*
X114229783Y-91266000D01*
X114229783Y-91266000D02*
X114382164Y-91366000D01*
X114382164Y-91366000D02*
X114458355Y-91466000D01*
X114458355Y-91466000D02*
X114534545Y-91666000D01*
X114534545Y-91666000D02*
X114534545Y-92466000D01*
X114534545Y-92466000D02*
X112934545Y-92466000D01*
X112934545Y-92466000D02*
X112934545Y-91766000D01*
X112934545Y-91766000D02*
X113010735Y-91566000D01*
X113010735Y-91566000D02*
X113086926Y-91466000D01*
X113086926Y-91466000D02*
X113239307Y-91366000D01*
X113239307Y-91366000D02*
X113391688Y-91366000D01*
X113391688Y-91366000D02*
X113544069Y-91466000D01*
X113544069Y-91466000D02*
X113620259Y-91566000D01*
X113620259Y-91566000D02*
X113696450Y-91766000D01*
X113696450Y-91766000D02*
X113696450Y-92466000D01*
X113467878Y-88966000D02*
X114534545Y-88466000D01*
X114534545Y-88466000D02*
X113467878Y-87966000D01*
X113086926Y-87266000D02*
X113010735Y-87166000D01*
X113010735Y-87166000D02*
X112934545Y-86966000D01*
X112934545Y-86966000D02*
X112934545Y-86466000D01*
X112934545Y-86466000D02*
X113010735Y-86266000D01*
X113010735Y-86266000D02*
X113086926Y-86166000D01*
X113086926Y-86166000D02*
X113239307Y-86066000D01*
X113239307Y-86066000D02*
X113391688Y-86066000D01*
X113391688Y-86066000D02*
X113620259Y-86166000D01*
X113620259Y-86166000D02*
X114534545Y-87366000D01*
X114534545Y-87366000D02*
X114534545Y-86066000D01*
X114382164Y-85166000D02*
X114458355Y-85066000D01*
X114458355Y-85066000D02*
X114534545Y-85166000D01*
X114534545Y-85166000D02*
X114458355Y-85266000D01*
X114458355Y-85266000D02*
X114382164Y-85166000D01*
X114382164Y-85166000D02*
X114534545Y-85166000D01*
X112934545Y-83766000D02*
X112934545Y-83566000D01*
X112934545Y-83566000D02*
X113010735Y-83366000D01*
X113010735Y-83366000D02*
X113086926Y-83266000D01*
X113086926Y-83266000D02*
X113239307Y-83166000D01*
X113239307Y-83166000D02*
X113544069Y-83066000D01*
X113544069Y-83066000D02*
X113925021Y-83066000D01*
X113925021Y-83066000D02*
X114229783Y-83166000D01*
X114229783Y-83166000D02*
X114382164Y-83266000D01*
X114382164Y-83266000D02*
X114458355Y-83366000D01*
X114458355Y-83366000D02*
X114534545Y-83566000D01*
X114534545Y-83566000D02*
X114534545Y-83766000D01*
X114534545Y-83766000D02*
X114458355Y-83966000D01*
X114458355Y-83966000D02*
X114382164Y-84066000D01*
X114382164Y-84066000D02*
X114229783Y-84166000D01*
X114229783Y-84166000D02*
X113925021Y-84266000D01*
X113925021Y-84266000D02*
X113544069Y-84266000D01*
X113544069Y-84266000D02*
X113239307Y-84166000D01*
X113239307Y-84166000D02*
X113086926Y-84066000D01*
X113086926Y-84066000D02*
X113010735Y-83966000D01*
X113010735Y-83966000D02*
X112934545Y-83766000D01*
D11*
X121391600Y-118093856D02*
X121448742Y-117979570D01*
X121448742Y-117979570D02*
X121448742Y-117750999D01*
X121448742Y-117750999D02*
X121391600Y-117636713D01*
X121391600Y-117636713D02*
X121277314Y-117579570D01*
X121277314Y-117579570D02*
X121220171Y-117579570D01*
X121220171Y-117579570D02*
X121105885Y-117636713D01*
X121105885Y-117636713D02*
X121048742Y-117750999D01*
X121048742Y-117750999D02*
X121048742Y-117922428D01*
X121048742Y-117922428D02*
X120991600Y-118036713D01*
X120991600Y-118036713D02*
X120877314Y-118093856D01*
X120877314Y-118093856D02*
X120820171Y-118093856D01*
X120820171Y-118093856D02*
X120705885Y-118036713D01*
X120705885Y-118036713D02*
X120648742Y-117922428D01*
X120648742Y-117922428D02*
X120648742Y-117750999D01*
X120648742Y-117750999D02*
X120705885Y-117636713D01*
X121391600Y-116608141D02*
X121448742Y-116722427D01*
X121448742Y-116722427D02*
X121448742Y-116950999D01*
X121448742Y-116950999D02*
X121391600Y-117065284D01*
X121391600Y-117065284D02*
X121277314Y-117122427D01*
X121277314Y-117122427D02*
X120820171Y-117122427D01*
X120820171Y-117122427D02*
X120705885Y-117065284D01*
X120705885Y-117065284D02*
X120648742Y-116950999D01*
X120648742Y-116950999D02*
X120648742Y-116722427D01*
X120648742Y-116722427D02*
X120705885Y-116608141D01*
X120705885Y-116608141D02*
X120820171Y-116550999D01*
X120820171Y-116550999D02*
X120934457Y-116550999D01*
X120934457Y-116550999D02*
X121048742Y-117122427D01*
X121448742Y-116036713D02*
X120648742Y-116036713D01*
X120877314Y-116036713D02*
X120763028Y-115979570D01*
X120763028Y-115979570D02*
X120705885Y-115922428D01*
X120705885Y-115922428D02*
X120648742Y-115808142D01*
X120648742Y-115808142D02*
X120648742Y-115693856D01*
X120648742Y-115408142D02*
X121448742Y-115122428D01*
X121448742Y-115122428D02*
X120648742Y-114836713D01*
X121448742Y-114208142D02*
X121391600Y-114322427D01*
X121391600Y-114322427D02*
X121334457Y-114379570D01*
X121334457Y-114379570D02*
X121220171Y-114436713D01*
X121220171Y-114436713D02*
X120877314Y-114436713D01*
X120877314Y-114436713D02*
X120763028Y-114379570D01*
X120763028Y-114379570D02*
X120705885Y-114322427D01*
X120705885Y-114322427D02*
X120648742Y-114208142D01*
X120648742Y-114208142D02*
X120648742Y-114036713D01*
X120648742Y-114036713D02*
X120705885Y-113922427D01*
X120705885Y-113922427D02*
X120763028Y-113865285D01*
X120763028Y-113865285D02*
X120877314Y-113808142D01*
X120877314Y-113808142D02*
X121220171Y-113808142D01*
X121220171Y-113808142D02*
X121334457Y-113865285D01*
X121334457Y-113865285D02*
X121391600Y-113922427D01*
X121391600Y-113922427D02*
X121448742Y-114036713D01*
X121448742Y-114036713D02*
X121448742Y-114208142D01*
D10*
X123039428Y-127566009D02*
X123182285Y-127613628D01*
X123182285Y-127613628D02*
X123229904Y-127661247D01*
X123229904Y-127661247D02*
X123277523Y-127756485D01*
X123277523Y-127756485D02*
X123277523Y-127899342D01*
X123277523Y-127899342D02*
X123229904Y-127994580D01*
X123229904Y-127994580D02*
X123182285Y-128042200D01*
X123182285Y-128042200D02*
X123087047Y-128089819D01*
X123087047Y-128089819D02*
X122706095Y-128089819D01*
X122706095Y-128089819D02*
X122706095Y-127089819D01*
X122706095Y-127089819D02*
X123039428Y-127089819D01*
X123039428Y-127089819D02*
X123134666Y-127137438D01*
X123134666Y-127137438D02*
X123182285Y-127185057D01*
X123182285Y-127185057D02*
X123229904Y-127280295D01*
X123229904Y-127280295D02*
X123229904Y-127375533D01*
X123229904Y-127375533D02*
X123182285Y-127470771D01*
X123182285Y-127470771D02*
X123134666Y-127518390D01*
X123134666Y-127518390D02*
X123039428Y-127566009D01*
X123039428Y-127566009D02*
X122706095Y-127566009D01*
X124134666Y-127423152D02*
X124134666Y-128089819D01*
X123706095Y-127423152D02*
X123706095Y-127946961D01*
X123706095Y-127946961D02*
X123753714Y-128042200D01*
X123753714Y-128042200D02*
X123848952Y-128089819D01*
X123848952Y-128089819D02*
X123991809Y-128089819D01*
X123991809Y-128089819D02*
X124087047Y-128042200D01*
X124087047Y-128042200D02*
X124134666Y-127994580D01*
X124515619Y-127423152D02*
X125039428Y-127423152D01*
X125039428Y-127423152D02*
X124515619Y-128089819D01*
X124515619Y-128089819D02*
X125039428Y-128089819D01*
X125325143Y-127423152D02*
X125848952Y-127423152D01*
X125848952Y-127423152D02*
X125325143Y-128089819D01*
X125325143Y-128089819D02*
X125848952Y-128089819D01*
X126610857Y-128042200D02*
X126515619Y-128089819D01*
X126515619Y-128089819D02*
X126325143Y-128089819D01*
X126325143Y-128089819D02*
X126229905Y-128042200D01*
X126229905Y-128042200D02*
X126182286Y-127946961D01*
X126182286Y-127946961D02*
X126182286Y-127566009D01*
X126182286Y-127566009D02*
X126229905Y-127470771D01*
X126229905Y-127470771D02*
X126325143Y-127423152D01*
X126325143Y-127423152D02*
X126515619Y-127423152D01*
X126515619Y-127423152D02*
X126610857Y-127470771D01*
X126610857Y-127470771D02*
X126658476Y-127566009D01*
X126658476Y-127566009D02*
X126658476Y-127661247D01*
X126658476Y-127661247D02*
X126182286Y-127756485D01*
X127087048Y-128089819D02*
X127087048Y-127423152D01*
X127087048Y-127613628D02*
X127134667Y-127518390D01*
X127134667Y-127518390D02*
X127182286Y-127470771D01*
X127182286Y-127470771D02*
X127277524Y-127423152D01*
X127277524Y-127423152D02*
X127372762Y-127423152D01*
D11*
X127698571Y-126372100D02*
X128841429Y-126372100D01*
X128270000Y-126943528D02*
X128270000Y-125800671D01*
D10*
X131761033Y-76017285D02*
X131061033Y-76017285D01*
X131127700Y-75760143D02*
X131094366Y-75731571D01*
X131094366Y-75731571D02*
X131061033Y-75674429D01*
X131061033Y-75674429D02*
X131061033Y-75531571D01*
X131061033Y-75531571D02*
X131094366Y-75474429D01*
X131094366Y-75474429D02*
X131127700Y-75445857D01*
X131127700Y-75445857D02*
X131194366Y-75417286D01*
X131194366Y-75417286D02*
X131261033Y-75417286D01*
X131261033Y-75417286D02*
X131361033Y-75445857D01*
X131361033Y-75445857D02*
X131761033Y-75788714D01*
X131761033Y-75788714D02*
X131761033Y-75417286D01*
X131694366Y-74817285D02*
X131727700Y-74845857D01*
X131727700Y-74845857D02*
X131761033Y-74931571D01*
X131761033Y-74931571D02*
X131761033Y-74988714D01*
X131761033Y-74988714D02*
X131727700Y-75074428D01*
X131727700Y-75074428D02*
X131661033Y-75131571D01*
X131661033Y-75131571D02*
X131594366Y-75160142D01*
X131594366Y-75160142D02*
X131461033Y-75188714D01*
X131461033Y-75188714D02*
X131361033Y-75188714D01*
X131361033Y-75188714D02*
X131227700Y-75160142D01*
X131227700Y-75160142D02*
X131161033Y-75131571D01*
X131161033Y-75131571D02*
X131094366Y-75074428D01*
X131094366Y-75074428D02*
X131061033Y-74988714D01*
X131061033Y-74988714D02*
X131061033Y-74931571D01*
X131061033Y-74931571D02*
X131094366Y-74845857D01*
X131094366Y-74845857D02*
X131127700Y-74817285D01*
X131494366Y-74560142D02*
X131494366Y-74103000D01*
X131561033Y-73845857D02*
X131561033Y-73560143D01*
X131761033Y-73903000D02*
X131061033Y-73703000D01*
X131061033Y-73703000D02*
X131761033Y-73503000D01*
X131888033Y-79870142D02*
X131188033Y-79870142D01*
X131254700Y-79613000D02*
X131221366Y-79584428D01*
X131221366Y-79584428D02*
X131188033Y-79527286D01*
X131188033Y-79527286D02*
X131188033Y-79384428D01*
X131188033Y-79384428D02*
X131221366Y-79327286D01*
X131221366Y-79327286D02*
X131254700Y-79298714D01*
X131254700Y-79298714D02*
X131321366Y-79270143D01*
X131321366Y-79270143D02*
X131388033Y-79270143D01*
X131388033Y-79270143D02*
X131488033Y-79298714D01*
X131488033Y-79298714D02*
X131888033Y-79641571D01*
X131888033Y-79641571D02*
X131888033Y-79270143D01*
X131821366Y-78670142D02*
X131854700Y-78698714D01*
X131854700Y-78698714D02*
X131888033Y-78784428D01*
X131888033Y-78784428D02*
X131888033Y-78841571D01*
X131888033Y-78841571D02*
X131854700Y-78927285D01*
X131854700Y-78927285D02*
X131788033Y-78984428D01*
X131788033Y-78984428D02*
X131721366Y-79012999D01*
X131721366Y-79012999D02*
X131588033Y-79041571D01*
X131588033Y-79041571D02*
X131488033Y-79041571D01*
X131488033Y-79041571D02*
X131354700Y-79012999D01*
X131354700Y-79012999D02*
X131288033Y-78984428D01*
X131288033Y-78984428D02*
X131221366Y-78927285D01*
X131221366Y-78927285D02*
X131188033Y-78841571D01*
X131188033Y-78841571D02*
X131188033Y-78784428D01*
X131188033Y-78784428D02*
X131221366Y-78698714D01*
X131221366Y-78698714D02*
X131254700Y-78670142D01*
X131621366Y-78412999D02*
X131621366Y-77955857D01*
X131521366Y-77470142D02*
X131554700Y-77384428D01*
X131554700Y-77384428D02*
X131588033Y-77355857D01*
X131588033Y-77355857D02*
X131654700Y-77327285D01*
X131654700Y-77327285D02*
X131754700Y-77327285D01*
X131754700Y-77327285D02*
X131821366Y-77355857D01*
X131821366Y-77355857D02*
X131854700Y-77384428D01*
X131854700Y-77384428D02*
X131888033Y-77441571D01*
X131888033Y-77441571D02*
X131888033Y-77670142D01*
X131888033Y-77670142D02*
X131188033Y-77670142D01*
X131188033Y-77670142D02*
X131188033Y-77470142D01*
X131188033Y-77470142D02*
X131221366Y-77413000D01*
X131221366Y-77413000D02*
X131254700Y-77384428D01*
X131254700Y-77384428D02*
X131321366Y-77355857D01*
X131321366Y-77355857D02*
X131388033Y-77355857D01*
X131388033Y-77355857D02*
X131454700Y-77384428D01*
X131454700Y-77384428D02*
X131488033Y-77413000D01*
X131488033Y-77413000D02*
X131521366Y-77470142D01*
X131521366Y-77470142D02*
X131521366Y-77670142D01*
D11*
X111418504Y-73263094D02*
X111418504Y-72786904D01*
X111704219Y-73358332D02*
X110704219Y-73024999D01*
X110704219Y-73024999D02*
X111704219Y-72691666D01*
X113720409Y-72953571D02*
X113768028Y-72810714D01*
X113768028Y-72810714D02*
X113815647Y-72763095D01*
X113815647Y-72763095D02*
X113910885Y-72715476D01*
X113910885Y-72715476D02*
X114053742Y-72715476D01*
X114053742Y-72715476D02*
X114148980Y-72763095D01*
X114148980Y-72763095D02*
X114196600Y-72810714D01*
X114196600Y-72810714D02*
X114244219Y-72905952D01*
X114244219Y-72905952D02*
X114244219Y-73286904D01*
X114244219Y-73286904D02*
X113244219Y-73286904D01*
X113244219Y-73286904D02*
X113244219Y-72953571D01*
X113244219Y-72953571D02*
X113291838Y-72858333D01*
X113291838Y-72858333D02*
X113339457Y-72810714D01*
X113339457Y-72810714D02*
X113434695Y-72763095D01*
X113434695Y-72763095D02*
X113529933Y-72763095D01*
X113529933Y-72763095D02*
X113625171Y-72810714D01*
X113625171Y-72810714D02*
X113672790Y-72858333D01*
X113672790Y-72858333D02*
X113720409Y-72953571D01*
X113720409Y-72953571D02*
X113720409Y-73286904D01*
X118642957Y-89629761D02*
X117742957Y-89629761D01*
X117742957Y-89629761D02*
X117742957Y-89248809D01*
X117742957Y-89248809D02*
X117785814Y-89153571D01*
X117785814Y-89153571D02*
X117828671Y-89105952D01*
X117828671Y-89105952D02*
X117914385Y-89058333D01*
X117914385Y-89058333D02*
X118042957Y-89058333D01*
X118042957Y-89058333D02*
X118128671Y-89105952D01*
X118128671Y-89105952D02*
X118171528Y-89153571D01*
X118171528Y-89153571D02*
X118214385Y-89248809D01*
X118214385Y-89248809D02*
X118214385Y-89629761D01*
X118642957Y-88629761D02*
X117742957Y-88629761D01*
X118642957Y-87582143D02*
X118214385Y-87915476D01*
X118642957Y-88153571D02*
X117742957Y-88153571D01*
X117742957Y-88153571D02*
X117742957Y-87772619D01*
X117742957Y-87772619D02*
X117785814Y-87677381D01*
X117785814Y-87677381D02*
X117828671Y-87629762D01*
X117828671Y-87629762D02*
X117914385Y-87582143D01*
X117914385Y-87582143D02*
X118042957Y-87582143D01*
X118042957Y-87582143D02*
X118128671Y-87629762D01*
X118128671Y-87629762D02*
X118171528Y-87677381D01*
X118171528Y-87677381D02*
X118214385Y-87772619D01*
X118214385Y-87772619D02*
X118214385Y-88153571D01*
X118300100Y-87153571D02*
X118300100Y-86391667D01*
X118042957Y-85486905D02*
X118642957Y-85486905D01*
X118042957Y-85915476D02*
X118514385Y-85915476D01*
X118514385Y-85915476D02*
X118600100Y-85867857D01*
X118600100Y-85867857D02*
X118642957Y-85772619D01*
X118642957Y-85772619D02*
X118642957Y-85629762D01*
X118642957Y-85629762D02*
X118600100Y-85534524D01*
X118600100Y-85534524D02*
X118557242Y-85486905D01*
X117742957Y-85105952D02*
X118642957Y-84867857D01*
X118642957Y-84867857D02*
X118000100Y-84677381D01*
X118000100Y-84677381D02*
X118642957Y-84486905D01*
X118642957Y-84486905D02*
X117742957Y-84248810D01*
X118642957Y-83439286D02*
X118171528Y-83439286D01*
X118171528Y-83439286D02*
X118085814Y-83486905D01*
X118085814Y-83486905D02*
X118042957Y-83582143D01*
X118042957Y-83582143D02*
X118042957Y-83772619D01*
X118042957Y-83772619D02*
X118085814Y-83867857D01*
X118600100Y-83439286D02*
X118642957Y-83534524D01*
X118642957Y-83534524D02*
X118642957Y-83772619D01*
X118642957Y-83772619D02*
X118600100Y-83867857D01*
X118600100Y-83867857D02*
X118514385Y-83915476D01*
X118514385Y-83915476D02*
X118428671Y-83915476D01*
X118428671Y-83915476D02*
X118342957Y-83867857D01*
X118342957Y-83867857D02*
X118300100Y-83772619D01*
X118300100Y-83772619D02*
X118300100Y-83534524D01*
X118300100Y-83534524D02*
X118257242Y-83439286D01*
X118042957Y-83058333D02*
X118642957Y-82820238D01*
X118642957Y-82820238D02*
X118042957Y-82582143D01*
X118600100Y-81820238D02*
X118642957Y-81915476D01*
X118642957Y-81915476D02*
X118642957Y-82105952D01*
X118642957Y-82105952D02*
X118600100Y-82201190D01*
X118600100Y-82201190D02*
X118514385Y-82248809D01*
X118514385Y-82248809D02*
X118171528Y-82248809D01*
X118171528Y-82248809D02*
X118085814Y-82201190D01*
X118085814Y-82201190D02*
X118042957Y-82105952D01*
X118042957Y-82105952D02*
X118042957Y-81915476D01*
X118042957Y-81915476D02*
X118085814Y-81820238D01*
X118085814Y-81820238D02*
X118171528Y-81772619D01*
X118171528Y-81772619D02*
X118257242Y-81772619D01*
X118257242Y-81772619D02*
X118342957Y-82248809D01*
D10*
X109417295Y-112020143D02*
X109988723Y-112020143D01*
X109988723Y-112020143D02*
X110103009Y-112058238D01*
X110103009Y-112058238D02*
X110179200Y-112134429D01*
X110179200Y-112134429D02*
X110217295Y-112248714D01*
X110217295Y-112248714D02*
X110217295Y-112324905D01*
X110179200Y-111677286D02*
X110217295Y-111563000D01*
X110217295Y-111563000D02*
X110217295Y-111372524D01*
X110217295Y-111372524D02*
X110179200Y-111296333D01*
X110179200Y-111296333D02*
X110141104Y-111258238D01*
X110141104Y-111258238D02*
X110064914Y-111220143D01*
X110064914Y-111220143D02*
X109988723Y-111220143D01*
X109988723Y-111220143D02*
X109912533Y-111258238D01*
X109912533Y-111258238D02*
X109874438Y-111296333D01*
X109874438Y-111296333D02*
X109836342Y-111372524D01*
X109836342Y-111372524D02*
X109798247Y-111524905D01*
X109798247Y-111524905D02*
X109760152Y-111601095D01*
X109760152Y-111601095D02*
X109722057Y-111639190D01*
X109722057Y-111639190D02*
X109645866Y-111677286D01*
X109645866Y-111677286D02*
X109569676Y-111677286D01*
X109569676Y-111677286D02*
X109493485Y-111639190D01*
X109493485Y-111639190D02*
X109455390Y-111601095D01*
X109455390Y-111601095D02*
X109417295Y-111524905D01*
X109417295Y-111524905D02*
X109417295Y-111334428D01*
X109417295Y-111334428D02*
X109455390Y-111220143D01*
X109417295Y-110991571D02*
X109417295Y-110534428D01*
X110217295Y-110763000D02*
X109417295Y-110763000D01*
X109798247Y-109391571D02*
X109836342Y-109277285D01*
X109836342Y-109277285D02*
X109874438Y-109239190D01*
X109874438Y-109239190D02*
X109950628Y-109201094D01*
X109950628Y-109201094D02*
X110064914Y-109201094D01*
X110064914Y-109201094D02*
X110141104Y-109239190D01*
X110141104Y-109239190D02*
X110179200Y-109277285D01*
X110179200Y-109277285D02*
X110217295Y-109353475D01*
X110217295Y-109353475D02*
X110217295Y-109658237D01*
X110217295Y-109658237D02*
X109417295Y-109658237D01*
X109417295Y-109658237D02*
X109417295Y-109391571D01*
X109417295Y-109391571D02*
X109455390Y-109315380D01*
X109455390Y-109315380D02*
X109493485Y-109277285D01*
X109493485Y-109277285D02*
X109569676Y-109239190D01*
X109569676Y-109239190D02*
X109645866Y-109239190D01*
X109645866Y-109239190D02*
X109722057Y-109277285D01*
X109722057Y-109277285D02*
X109760152Y-109315380D01*
X109760152Y-109315380D02*
X109798247Y-109391571D01*
X109798247Y-109391571D02*
X109798247Y-109658237D01*
X110217295Y-108439190D02*
X110217295Y-108896333D01*
X110217295Y-108667761D02*
X109417295Y-108667761D01*
X109417295Y-108667761D02*
X109531580Y-108743952D01*
X109531580Y-108743952D02*
X109607771Y-108820142D01*
X109607771Y-108820142D02*
X109645866Y-108896333D01*
X109417295Y-120656143D02*
X109988723Y-120656143D01*
X109988723Y-120656143D02*
X110103009Y-120694238D01*
X110103009Y-120694238D02*
X110179200Y-120770429D01*
X110179200Y-120770429D02*
X110217295Y-120884714D01*
X110217295Y-120884714D02*
X110217295Y-120960905D01*
X110179200Y-120313286D02*
X110217295Y-120199000D01*
X110217295Y-120199000D02*
X110217295Y-120008524D01*
X110217295Y-120008524D02*
X110179200Y-119932333D01*
X110179200Y-119932333D02*
X110141104Y-119894238D01*
X110141104Y-119894238D02*
X110064914Y-119856143D01*
X110064914Y-119856143D02*
X109988723Y-119856143D01*
X109988723Y-119856143D02*
X109912533Y-119894238D01*
X109912533Y-119894238D02*
X109874438Y-119932333D01*
X109874438Y-119932333D02*
X109836342Y-120008524D01*
X109836342Y-120008524D02*
X109798247Y-120160905D01*
X109798247Y-120160905D02*
X109760152Y-120237095D01*
X109760152Y-120237095D02*
X109722057Y-120275190D01*
X109722057Y-120275190D02*
X109645866Y-120313286D01*
X109645866Y-120313286D02*
X109569676Y-120313286D01*
X109569676Y-120313286D02*
X109493485Y-120275190D01*
X109493485Y-120275190D02*
X109455390Y-120237095D01*
X109455390Y-120237095D02*
X109417295Y-120160905D01*
X109417295Y-120160905D02*
X109417295Y-119970428D01*
X109417295Y-119970428D02*
X109455390Y-119856143D01*
X109417295Y-119627571D02*
X109417295Y-119170428D01*
X110217295Y-119399000D02*
X109417295Y-119399000D01*
X109798247Y-118027571D02*
X109836342Y-117913285D01*
X109836342Y-117913285D02*
X109874438Y-117875190D01*
X109874438Y-117875190D02*
X109950628Y-117837094D01*
X109950628Y-117837094D02*
X110064914Y-117837094D01*
X110064914Y-117837094D02*
X110141104Y-117875190D01*
X110141104Y-117875190D02*
X110179200Y-117913285D01*
X110179200Y-117913285D02*
X110217295Y-117989475D01*
X110217295Y-117989475D02*
X110217295Y-118294237D01*
X110217295Y-118294237D02*
X109417295Y-118294237D01*
X109417295Y-118294237D02*
X109417295Y-118027571D01*
X109417295Y-118027571D02*
X109455390Y-117951380D01*
X109455390Y-117951380D02*
X109493485Y-117913285D01*
X109493485Y-117913285D02*
X109569676Y-117875190D01*
X109569676Y-117875190D02*
X109645866Y-117875190D01*
X109645866Y-117875190D02*
X109722057Y-117913285D01*
X109722057Y-117913285D02*
X109760152Y-117951380D01*
X109760152Y-117951380D02*
X109798247Y-118027571D01*
X109798247Y-118027571D02*
X109798247Y-118294237D01*
X109493485Y-117532333D02*
X109455390Y-117494237D01*
X109455390Y-117494237D02*
X109417295Y-117418047D01*
X109417295Y-117418047D02*
X109417295Y-117227571D01*
X109417295Y-117227571D02*
X109455390Y-117151380D01*
X109455390Y-117151380D02*
X109493485Y-117113285D01*
X109493485Y-117113285D02*
X109569676Y-117075190D01*
X109569676Y-117075190D02*
X109645866Y-117075190D01*
X109645866Y-117075190D02*
X109760152Y-117113285D01*
X109760152Y-117113285D02*
X110217295Y-117570428D01*
X110217295Y-117570428D02*
X110217295Y-117075190D01*
X109417295Y-129292143D02*
X109988723Y-129292143D01*
X109988723Y-129292143D02*
X110103009Y-129330238D01*
X110103009Y-129330238D02*
X110179200Y-129406429D01*
X110179200Y-129406429D02*
X110217295Y-129520714D01*
X110217295Y-129520714D02*
X110217295Y-129596905D01*
X110179200Y-128949286D02*
X110217295Y-128835000D01*
X110217295Y-128835000D02*
X110217295Y-128644524D01*
X110217295Y-128644524D02*
X110179200Y-128568333D01*
X110179200Y-128568333D02*
X110141104Y-128530238D01*
X110141104Y-128530238D02*
X110064914Y-128492143D01*
X110064914Y-128492143D02*
X109988723Y-128492143D01*
X109988723Y-128492143D02*
X109912533Y-128530238D01*
X109912533Y-128530238D02*
X109874438Y-128568333D01*
X109874438Y-128568333D02*
X109836342Y-128644524D01*
X109836342Y-128644524D02*
X109798247Y-128796905D01*
X109798247Y-128796905D02*
X109760152Y-128873095D01*
X109760152Y-128873095D02*
X109722057Y-128911190D01*
X109722057Y-128911190D02*
X109645866Y-128949286D01*
X109645866Y-128949286D02*
X109569676Y-128949286D01*
X109569676Y-128949286D02*
X109493485Y-128911190D01*
X109493485Y-128911190D02*
X109455390Y-128873095D01*
X109455390Y-128873095D02*
X109417295Y-128796905D01*
X109417295Y-128796905D02*
X109417295Y-128606428D01*
X109417295Y-128606428D02*
X109455390Y-128492143D01*
X109417295Y-128263571D02*
X109417295Y-127806428D01*
X110217295Y-128035000D02*
X109417295Y-128035000D01*
X109798247Y-126663571D02*
X109836342Y-126549285D01*
X109836342Y-126549285D02*
X109874438Y-126511190D01*
X109874438Y-126511190D02*
X109950628Y-126473094D01*
X109950628Y-126473094D02*
X110064914Y-126473094D01*
X110064914Y-126473094D02*
X110141104Y-126511190D01*
X110141104Y-126511190D02*
X110179200Y-126549285D01*
X110179200Y-126549285D02*
X110217295Y-126625475D01*
X110217295Y-126625475D02*
X110217295Y-126930237D01*
X110217295Y-126930237D02*
X109417295Y-126930237D01*
X109417295Y-126930237D02*
X109417295Y-126663571D01*
X109417295Y-126663571D02*
X109455390Y-126587380D01*
X109455390Y-126587380D02*
X109493485Y-126549285D01*
X109493485Y-126549285D02*
X109569676Y-126511190D01*
X109569676Y-126511190D02*
X109645866Y-126511190D01*
X109645866Y-126511190D02*
X109722057Y-126549285D01*
X109722057Y-126549285D02*
X109760152Y-126587380D01*
X109760152Y-126587380D02*
X109798247Y-126663571D01*
X109798247Y-126663571D02*
X109798247Y-126930237D01*
X109417295Y-126206428D02*
X109417295Y-125711190D01*
X109417295Y-125711190D02*
X109722057Y-125977856D01*
X109722057Y-125977856D02*
X109722057Y-125863571D01*
X109722057Y-125863571D02*
X109760152Y-125787380D01*
X109760152Y-125787380D02*
X109798247Y-125749285D01*
X109798247Y-125749285D02*
X109874438Y-125711190D01*
X109874438Y-125711190D02*
X110064914Y-125711190D01*
X110064914Y-125711190D02*
X110141104Y-125749285D01*
X110141104Y-125749285D02*
X110179200Y-125787380D01*
X110179200Y-125787380D02*
X110217295Y-125863571D01*
X110217295Y-125863571D02*
X110217295Y-126092142D01*
X110217295Y-126092142D02*
X110179200Y-126168333D01*
X110179200Y-126168333D02*
X110141104Y-126206428D01*
X125503557Y-90245952D02*
X125074985Y-90512619D01*
X125503557Y-90703095D02*
X124603557Y-90703095D01*
X124603557Y-90703095D02*
X124603557Y-90398333D01*
X124603557Y-90398333D02*
X124646414Y-90322143D01*
X124646414Y-90322143D02*
X124689271Y-90284048D01*
X124689271Y-90284048D02*
X124774985Y-90245952D01*
X124774985Y-90245952D02*
X124903557Y-90245952D01*
X124903557Y-90245952D02*
X124989271Y-90284048D01*
X124989271Y-90284048D02*
X125032128Y-90322143D01*
X125032128Y-90322143D02*
X125074985Y-90398333D01*
X125074985Y-90398333D02*
X125074985Y-90703095D01*
X125503557Y-89484048D02*
X125503557Y-89941191D01*
X125503557Y-89712619D02*
X124603557Y-89712619D01*
X124603557Y-89712619D02*
X124732128Y-89788810D01*
X124732128Y-89788810D02*
X124817842Y-89865000D01*
X124817842Y-89865000D02*
X124860700Y-89941191D01*
X124903557Y-88188809D02*
X125503557Y-88188809D01*
X124560700Y-88379285D02*
X125203557Y-88569762D01*
X125203557Y-88569762D02*
X125203557Y-88074523D01*
X124603557Y-87845952D02*
X124603557Y-87312618D01*
X124603557Y-87312618D02*
X125503557Y-87655476D01*
X124603557Y-86855475D02*
X124603557Y-86779285D01*
X124603557Y-86779285D02*
X124646414Y-86703094D01*
X124646414Y-86703094D02*
X124689271Y-86664999D01*
X124689271Y-86664999D02*
X124774985Y-86626904D01*
X124774985Y-86626904D02*
X124946414Y-86588809D01*
X124946414Y-86588809D02*
X125160700Y-86588809D01*
X125160700Y-86588809D02*
X125332128Y-86626904D01*
X125332128Y-86626904D02*
X125417842Y-86664999D01*
X125417842Y-86664999D02*
X125460700Y-86703094D01*
X125460700Y-86703094D02*
X125503557Y-86779285D01*
X125503557Y-86779285D02*
X125503557Y-86855475D01*
X125503557Y-86855475D02*
X125460700Y-86931666D01*
X125460700Y-86931666D02*
X125417842Y-86969761D01*
X125417842Y-86969761D02*
X125332128Y-87007856D01*
X125332128Y-87007856D02*
X125160700Y-87045952D01*
X125160700Y-87045952D02*
X124946414Y-87045952D01*
X124946414Y-87045952D02*
X124774985Y-87007856D01*
X124774985Y-87007856D02*
X124689271Y-86969761D01*
X124689271Y-86969761D02*
X124646414Y-86931666D01*
X124646414Y-86931666D02*
X124603557Y-86855475D01*
X125503557Y-85788808D02*
X125074985Y-86055475D01*
X125503557Y-86245951D02*
X124603557Y-86245951D01*
X124603557Y-86245951D02*
X124603557Y-85941189D01*
X124603557Y-85941189D02*
X124646414Y-85864999D01*
X124646414Y-85864999D02*
X124689271Y-85826904D01*
X124689271Y-85826904D02*
X124774985Y-85788808D01*
X124774985Y-85788808D02*
X124903557Y-85788808D01*
X124903557Y-85788808D02*
X124989271Y-85826904D01*
X124989271Y-85826904D02*
X125032128Y-85864999D01*
X125032128Y-85864999D02*
X125074985Y-85941189D01*
X125074985Y-85941189D02*
X125074985Y-86245951D01*
X112198524Y-99041295D02*
X112198524Y-98507961D01*
X112198524Y-98584152D02*
X112236619Y-98546057D01*
X112236619Y-98546057D02*
X112312809Y-98507961D01*
X112312809Y-98507961D02*
X112427095Y-98507961D01*
X112427095Y-98507961D02*
X112503286Y-98546057D01*
X112503286Y-98546057D02*
X112541381Y-98622247D01*
X112541381Y-98622247D02*
X112541381Y-99041295D01*
X112541381Y-98622247D02*
X112579476Y-98546057D01*
X112579476Y-98546057D02*
X112655667Y-98507961D01*
X112655667Y-98507961D02*
X112769952Y-98507961D01*
X112769952Y-98507961D02*
X112846143Y-98546057D01*
X112846143Y-98546057D02*
X112884238Y-98622247D01*
X112884238Y-98622247D02*
X112884238Y-99041295D01*
X113265191Y-99041295D02*
X113265191Y-98507961D01*
X113265191Y-98241295D02*
X113227095Y-98279390D01*
X113227095Y-98279390D02*
X113265191Y-98317485D01*
X113265191Y-98317485D02*
X113303286Y-98279390D01*
X113303286Y-98279390D02*
X113265191Y-98241295D01*
X113265191Y-98241295D02*
X113265191Y-98317485D01*
X113989000Y-99003200D02*
X113912809Y-99041295D01*
X113912809Y-99041295D02*
X113760428Y-99041295D01*
X113760428Y-99041295D02*
X113684238Y-99003200D01*
X113684238Y-99003200D02*
X113646143Y-98965104D01*
X113646143Y-98965104D02*
X113608047Y-98888914D01*
X113608047Y-98888914D02*
X113608047Y-98660342D01*
X113608047Y-98660342D02*
X113646143Y-98584152D01*
X113646143Y-98584152D02*
X113684238Y-98546057D01*
X113684238Y-98546057D02*
X113760428Y-98507961D01*
X113760428Y-98507961D02*
X113912809Y-98507961D01*
X113912809Y-98507961D02*
X113989000Y-98546057D01*
X114331857Y-99041295D02*
X114331857Y-98507961D01*
X114331857Y-98660342D02*
X114369952Y-98584152D01*
X114369952Y-98584152D02*
X114408047Y-98546057D01*
X114408047Y-98546057D02*
X114484238Y-98507961D01*
X114484238Y-98507961D02*
X114560428Y-98507961D01*
X114941380Y-99041295D02*
X114865190Y-99003200D01*
X114865190Y-99003200D02*
X114827095Y-98965104D01*
X114827095Y-98965104D02*
X114788999Y-98888914D01*
X114788999Y-98888914D02*
X114788999Y-98660342D01*
X114788999Y-98660342D02*
X114827095Y-98584152D01*
X114827095Y-98584152D02*
X114865190Y-98546057D01*
X114865190Y-98546057D02*
X114941380Y-98507961D01*
X114941380Y-98507961D02*
X115055666Y-98507961D01*
X115055666Y-98507961D02*
X115131857Y-98546057D01*
X115131857Y-98546057D02*
X115169952Y-98584152D01*
X115169952Y-98584152D02*
X115208047Y-98660342D01*
X115208047Y-98660342D02*
X115208047Y-98888914D01*
X115208047Y-98888914D02*
X115169952Y-98965104D01*
X115169952Y-98965104D02*
X115131857Y-99003200D01*
X115131857Y-99003200D02*
X115055666Y-99041295D01*
X115055666Y-99041295D02*
X114941380Y-99041295D01*
X116160429Y-98241295D02*
X116160429Y-98888914D01*
X116160429Y-98888914D02*
X116198524Y-98965104D01*
X116198524Y-98965104D02*
X116236619Y-99003200D01*
X116236619Y-99003200D02*
X116312810Y-99041295D01*
X116312810Y-99041295D02*
X116465191Y-99041295D01*
X116465191Y-99041295D02*
X116541381Y-99003200D01*
X116541381Y-99003200D02*
X116579476Y-98965104D01*
X116579476Y-98965104D02*
X116617572Y-98888914D01*
X116617572Y-98888914D02*
X116617572Y-98241295D01*
X116960428Y-99003200D02*
X117074714Y-99041295D01*
X117074714Y-99041295D02*
X117265190Y-99041295D01*
X117265190Y-99041295D02*
X117341381Y-99003200D01*
X117341381Y-99003200D02*
X117379476Y-98965104D01*
X117379476Y-98965104D02*
X117417571Y-98888914D01*
X117417571Y-98888914D02*
X117417571Y-98812723D01*
X117417571Y-98812723D02*
X117379476Y-98736533D01*
X117379476Y-98736533D02*
X117341381Y-98698438D01*
X117341381Y-98698438D02*
X117265190Y-98660342D01*
X117265190Y-98660342D02*
X117112809Y-98622247D01*
X117112809Y-98622247D02*
X117036619Y-98584152D01*
X117036619Y-98584152D02*
X116998524Y-98546057D01*
X116998524Y-98546057D02*
X116960428Y-98469866D01*
X116960428Y-98469866D02*
X116960428Y-98393676D01*
X116960428Y-98393676D02*
X116998524Y-98317485D01*
X116998524Y-98317485D02*
X117036619Y-98279390D01*
X117036619Y-98279390D02*
X117112809Y-98241295D01*
X117112809Y-98241295D02*
X117303286Y-98241295D01*
X117303286Y-98241295D02*
X117417571Y-98279390D01*
X118027095Y-98622247D02*
X118141381Y-98660342D01*
X118141381Y-98660342D02*
X118179476Y-98698438D01*
X118179476Y-98698438D02*
X118217572Y-98774628D01*
X118217572Y-98774628D02*
X118217572Y-98888914D01*
X118217572Y-98888914D02*
X118179476Y-98965104D01*
X118179476Y-98965104D02*
X118141381Y-99003200D01*
X118141381Y-99003200D02*
X118065191Y-99041295D01*
X118065191Y-99041295D02*
X117760429Y-99041295D01*
X117760429Y-99041295D02*
X117760429Y-98241295D01*
X117760429Y-98241295D02*
X118027095Y-98241295D01*
X118027095Y-98241295D02*
X118103286Y-98279390D01*
X118103286Y-98279390D02*
X118141381Y-98317485D01*
X118141381Y-98317485D02*
X118179476Y-98393676D01*
X118179476Y-98393676D02*
X118179476Y-98469866D01*
X118179476Y-98469866D02*
X118141381Y-98546057D01*
X118141381Y-98546057D02*
X118103286Y-98584152D01*
X118103286Y-98584152D02*
X118027095Y-98622247D01*
X118027095Y-98622247D02*
X117760429Y-98622247D01*
X118345295Y-97516523D02*
X117545295Y-97516523D01*
X117545295Y-97516523D02*
X117545295Y-97211761D01*
X117545295Y-97211761D02*
X117583390Y-97135571D01*
X117583390Y-97135571D02*
X117621485Y-97097476D01*
X117621485Y-97097476D02*
X117697676Y-97059380D01*
X117697676Y-97059380D02*
X117811961Y-97059380D01*
X117811961Y-97059380D02*
X117888152Y-97097476D01*
X117888152Y-97097476D02*
X117926247Y-97135571D01*
X117926247Y-97135571D02*
X117964342Y-97211761D01*
X117964342Y-97211761D02*
X117964342Y-97516523D01*
X117545295Y-96792714D02*
X118345295Y-96602238D01*
X118345295Y-96602238D02*
X117773866Y-96449857D01*
X117773866Y-96449857D02*
X118345295Y-96297476D01*
X118345295Y-96297476D02*
X117545295Y-96107000D01*
X118345295Y-95345094D02*
X117964342Y-95611761D01*
X118345295Y-95802237D02*
X117545295Y-95802237D01*
X117545295Y-95802237D02*
X117545295Y-95497475D01*
X117545295Y-95497475D02*
X117583390Y-95421285D01*
X117583390Y-95421285D02*
X117621485Y-95383190D01*
X117621485Y-95383190D02*
X117697676Y-95345094D01*
X117697676Y-95345094D02*
X117811961Y-95345094D01*
X117811961Y-95345094D02*
X117888152Y-95383190D01*
X117888152Y-95383190D02*
X117926247Y-95421285D01*
X117926247Y-95421285D02*
X117964342Y-95497475D01*
X117964342Y-95497475D02*
X117964342Y-95802237D01*
X117811961Y-94392713D02*
X118497676Y-94392713D01*
X118497676Y-94392713D02*
X118573866Y-94430809D01*
X118573866Y-94430809D02*
X118611961Y-94506999D01*
X118611961Y-94506999D02*
X118611961Y-94545094D01*
X117545295Y-94392713D02*
X117583390Y-94430809D01*
X117583390Y-94430809D02*
X117621485Y-94392713D01*
X117621485Y-94392713D02*
X117583390Y-94354618D01*
X117583390Y-94354618D02*
X117545295Y-94392713D01*
X117545295Y-94392713D02*
X117621485Y-94392713D01*
X117811961Y-93668904D02*
X118345295Y-93668904D01*
X117811961Y-94011761D02*
X118231009Y-94011761D01*
X118231009Y-94011761D02*
X118307200Y-93973666D01*
X118307200Y-93973666D02*
X118345295Y-93897476D01*
X118345295Y-93897476D02*
X118345295Y-93783190D01*
X118345295Y-93783190D02*
X118307200Y-93706999D01*
X118307200Y-93706999D02*
X118269104Y-93668904D01*
X118345295Y-93287951D02*
X117811961Y-93287951D01*
X117888152Y-93287951D02*
X117850057Y-93249856D01*
X117850057Y-93249856D02*
X117811961Y-93173666D01*
X117811961Y-93173666D02*
X117811961Y-93059380D01*
X117811961Y-93059380D02*
X117850057Y-92983189D01*
X117850057Y-92983189D02*
X117926247Y-92945094D01*
X117926247Y-92945094D02*
X118345295Y-92945094D01*
X117926247Y-92945094D02*
X117850057Y-92906999D01*
X117850057Y-92906999D02*
X117811961Y-92830808D01*
X117811961Y-92830808D02*
X117811961Y-92716523D01*
X117811961Y-92716523D02*
X117850057Y-92640332D01*
X117850057Y-92640332D02*
X117926247Y-92602237D01*
X117926247Y-92602237D02*
X118345295Y-92602237D01*
X117811961Y-92221284D02*
X118611961Y-92221284D01*
X117850057Y-92221284D02*
X117811961Y-92145094D01*
X117811961Y-92145094D02*
X117811961Y-91992713D01*
X117811961Y-91992713D02*
X117850057Y-91916522D01*
X117850057Y-91916522D02*
X117888152Y-91878427D01*
X117888152Y-91878427D02*
X117964342Y-91840332D01*
X117964342Y-91840332D02*
X118192914Y-91840332D01*
X118192914Y-91840332D02*
X118269104Y-91878427D01*
X118269104Y-91878427D02*
X118307200Y-91916522D01*
X118307200Y-91916522D02*
X118345295Y-91992713D01*
X118345295Y-91992713D02*
X118345295Y-92145094D01*
X118345295Y-92145094D02*
X118307200Y-92221284D01*
X118307200Y-91192712D02*
X118345295Y-91268903D01*
X118345295Y-91268903D02*
X118345295Y-91421284D01*
X118345295Y-91421284D02*
X118307200Y-91497474D01*
X118307200Y-91497474D02*
X118231009Y-91535570D01*
X118231009Y-91535570D02*
X117926247Y-91535570D01*
X117926247Y-91535570D02*
X117850057Y-91497474D01*
X117850057Y-91497474D02*
X117811961Y-91421284D01*
X117811961Y-91421284D02*
X117811961Y-91268903D01*
X117811961Y-91268903D02*
X117850057Y-91192712D01*
X117850057Y-91192712D02*
X117926247Y-91154617D01*
X117926247Y-91154617D02*
X118002438Y-91154617D01*
X118002438Y-91154617D02*
X118078628Y-91535570D01*
X118345295Y-90811760D02*
X117811961Y-90811760D01*
X117964342Y-90811760D02*
X117888152Y-90773665D01*
X117888152Y-90773665D02*
X117850057Y-90735570D01*
X117850057Y-90735570D02*
X117811961Y-90659379D01*
X117811961Y-90659379D02*
X117811961Y-90583189D01*
D11*
X143365100Y-117886856D02*
X143407957Y-117963047D01*
X143407957Y-117963047D02*
X143407957Y-118115428D01*
X143407957Y-118115428D02*
X143365100Y-118191618D01*
X143365100Y-118191618D02*
X143279385Y-118229714D01*
X143279385Y-118229714D02*
X142936528Y-118229714D01*
X142936528Y-118229714D02*
X142850814Y-118191618D01*
X142850814Y-118191618D02*
X142807957Y-118115428D01*
X142807957Y-118115428D02*
X142807957Y-117963047D01*
X142807957Y-117963047D02*
X142850814Y-117886856D01*
X142850814Y-117886856D02*
X142936528Y-117848761D01*
X142936528Y-117848761D02*
X143022242Y-117848761D01*
X143022242Y-117848761D02*
X143107957Y-118229714D01*
X142807957Y-117505904D02*
X143407957Y-117505904D01*
X142893671Y-117505904D02*
X142850814Y-117467809D01*
X142850814Y-117467809D02*
X142807957Y-117391619D01*
X142807957Y-117391619D02*
X142807957Y-117277333D01*
X142807957Y-117277333D02*
X142850814Y-117201142D01*
X142850814Y-117201142D02*
X142936528Y-117163047D01*
X142936528Y-117163047D02*
X143407957Y-117163047D01*
X143150814Y-116820190D02*
X143150814Y-116439237D01*
X143407957Y-116896380D02*
X142507957Y-116629713D01*
X142507957Y-116629713D02*
X143407957Y-116363047D01*
X143407957Y-115486856D02*
X142507957Y-115486856D01*
X143407957Y-115105904D02*
X142507957Y-115105904D01*
X142507957Y-115105904D02*
X143407957Y-114648761D01*
X143407957Y-114648761D02*
X142507957Y-114648761D01*
X143407957Y-113848762D02*
X143407957Y-114305905D01*
X143407957Y-114077333D02*
X142507957Y-114077333D01*
X142507957Y-114077333D02*
X142636528Y-114153524D01*
X142636528Y-114153524D02*
X142722242Y-114229714D01*
X142722242Y-114229714D02*
X142765100Y-114305905D01*
X143407957Y-112896380D02*
X142507957Y-112896380D01*
X143407957Y-112515428D02*
X142507957Y-112515428D01*
X142507957Y-112515428D02*
X143407957Y-112058285D01*
X143407957Y-112058285D02*
X142507957Y-112058285D01*
X142593671Y-111715429D02*
X142550814Y-111677333D01*
X142550814Y-111677333D02*
X142507957Y-111601143D01*
X142507957Y-111601143D02*
X142507957Y-111410667D01*
X142507957Y-111410667D02*
X142550814Y-111334476D01*
X142550814Y-111334476D02*
X142593671Y-111296381D01*
X142593671Y-111296381D02*
X142679385Y-111258286D01*
X142679385Y-111258286D02*
X142765100Y-111258286D01*
X142765100Y-111258286D02*
X142893671Y-111296381D01*
X142893671Y-111296381D02*
X143407957Y-111753524D01*
X143407957Y-111753524D02*
X143407957Y-111258286D01*
X143407957Y-110305904D02*
X142507957Y-110305904D01*
X143407957Y-109924952D02*
X142507957Y-109924952D01*
X142507957Y-109924952D02*
X143407957Y-109467809D01*
X143407957Y-109467809D02*
X142507957Y-109467809D01*
X142507957Y-109163048D02*
X142507957Y-108667810D01*
X142507957Y-108667810D02*
X142850814Y-108934476D01*
X142850814Y-108934476D02*
X142850814Y-108820191D01*
X142850814Y-108820191D02*
X142893671Y-108744000D01*
X142893671Y-108744000D02*
X142936528Y-108705905D01*
X142936528Y-108705905D02*
X143022242Y-108667810D01*
X143022242Y-108667810D02*
X143236528Y-108667810D01*
X143236528Y-108667810D02*
X143322242Y-108705905D01*
X143322242Y-108705905D02*
X143365100Y-108744000D01*
X143365100Y-108744000D02*
X143407957Y-108820191D01*
X143407957Y-108820191D02*
X143407957Y-109048762D01*
X143407957Y-109048762D02*
X143365100Y-109124953D01*
X143365100Y-109124953D02*
X143322242Y-109163048D01*
X143407957Y-107715428D02*
X142507957Y-107715428D01*
X143407957Y-107334476D02*
X142507957Y-107334476D01*
X142507957Y-107334476D02*
X143407957Y-106877333D01*
X143407957Y-106877333D02*
X142507957Y-106877333D01*
X142807957Y-106153524D02*
X143407957Y-106153524D01*
X142465100Y-106344000D02*
X143107957Y-106534477D01*
X143107957Y-106534477D02*
X143107957Y-106039238D01*
X143365100Y-104820190D02*
X143407957Y-104896381D01*
X143407957Y-104896381D02*
X143407957Y-105048762D01*
X143407957Y-105048762D02*
X143365100Y-105124952D01*
X143365100Y-105124952D02*
X143279385Y-105163048D01*
X143279385Y-105163048D02*
X142936528Y-105163048D01*
X142936528Y-105163048D02*
X142850814Y-105124952D01*
X142850814Y-105124952D02*
X142807957Y-105048762D01*
X142807957Y-105048762D02*
X142807957Y-104896381D01*
X142807957Y-104896381D02*
X142850814Y-104820190D01*
X142850814Y-104820190D02*
X142936528Y-104782095D01*
X142936528Y-104782095D02*
X143022242Y-104782095D01*
X143022242Y-104782095D02*
X143107957Y-105163048D01*
X142807957Y-104439238D02*
X143407957Y-104439238D01*
X142893671Y-104439238D02*
X142850814Y-104401143D01*
X142850814Y-104401143D02*
X142807957Y-104324953D01*
X142807957Y-104324953D02*
X142807957Y-104210667D01*
X142807957Y-104210667D02*
X142850814Y-104134476D01*
X142850814Y-104134476D02*
X142936528Y-104096381D01*
X142936528Y-104096381D02*
X143407957Y-104096381D01*
X142936528Y-103448762D02*
X142979385Y-103334476D01*
X142979385Y-103334476D02*
X143022242Y-103296381D01*
X143022242Y-103296381D02*
X143107957Y-103258285D01*
X143107957Y-103258285D02*
X143236528Y-103258285D01*
X143236528Y-103258285D02*
X143322242Y-103296381D01*
X143322242Y-103296381D02*
X143365100Y-103334476D01*
X143365100Y-103334476D02*
X143407957Y-103410666D01*
X143407957Y-103410666D02*
X143407957Y-103715428D01*
X143407957Y-103715428D02*
X142507957Y-103715428D01*
X142507957Y-103715428D02*
X142507957Y-103448762D01*
X142507957Y-103448762D02*
X142550814Y-103372571D01*
X142550814Y-103372571D02*
X142593671Y-103334476D01*
X142593671Y-103334476D02*
X142679385Y-103296381D01*
X142679385Y-103296381D02*
X142765100Y-103296381D01*
X142765100Y-103296381D02*
X142850814Y-103334476D01*
X142850814Y-103334476D02*
X142893671Y-103372571D01*
X142893671Y-103372571D02*
X142936528Y-103448762D01*
X142936528Y-103448762D02*
X142936528Y-103715428D01*
D16*
X142471142Y-76574142D02*
X142471142Y-76345570D01*
X142471142Y-76345570D02*
X142528285Y-76231285D01*
X142528285Y-76231285D02*
X142642571Y-76116999D01*
X142642571Y-76116999D02*
X142871142Y-76059856D01*
X142871142Y-76059856D02*
X143271142Y-76059856D01*
X143271142Y-76059856D02*
X143499714Y-76116999D01*
X143499714Y-76116999D02*
X143614000Y-76231285D01*
X143614000Y-76231285D02*
X143671142Y-76345570D01*
X143671142Y-76345570D02*
X143671142Y-76574142D01*
X143671142Y-76574142D02*
X143614000Y-76688428D01*
X143614000Y-76688428D02*
X143499714Y-76802713D01*
X143499714Y-76802713D02*
X143271142Y-76859856D01*
X143271142Y-76859856D02*
X142871142Y-76859856D01*
X142871142Y-76859856D02*
X142642571Y-76802713D01*
X142642571Y-76802713D02*
X142528285Y-76688428D01*
X142528285Y-76688428D02*
X142471142Y-76574142D01*
X143671142Y-75545570D02*
X142471142Y-75545570D01*
X142471142Y-75545570D02*
X143671142Y-74859856D01*
X143671142Y-74859856D02*
X142471142Y-74859856D01*
X143214000Y-73374141D02*
X143214000Y-72459856D01*
X142471142Y-70745570D02*
X142471142Y-70516998D01*
X142471142Y-70516998D02*
X142528285Y-70402713D01*
X142528285Y-70402713D02*
X142642571Y-70288427D01*
X142642571Y-70288427D02*
X142871142Y-70231284D01*
X142871142Y-70231284D02*
X143271142Y-70231284D01*
X143271142Y-70231284D02*
X143499714Y-70288427D01*
X143499714Y-70288427D02*
X143614000Y-70402713D01*
X143614000Y-70402713D02*
X143671142Y-70516998D01*
X143671142Y-70516998D02*
X143671142Y-70745570D01*
X143671142Y-70745570D02*
X143614000Y-70859856D01*
X143614000Y-70859856D02*
X143499714Y-70974141D01*
X143499714Y-70974141D02*
X143271142Y-71031284D01*
X143271142Y-71031284D02*
X142871142Y-71031284D01*
X142871142Y-71031284D02*
X142642571Y-70974141D01*
X142642571Y-70974141D02*
X142528285Y-70859856D01*
X142528285Y-70859856D02*
X142471142Y-70745570D01*
X143042571Y-69316998D02*
X143042571Y-69716998D01*
X143671142Y-69716998D02*
X142471142Y-69716998D01*
X142471142Y-69716998D02*
X142471142Y-69145570D01*
X143042571Y-68288427D02*
X143042571Y-68688427D01*
X143671142Y-68688427D02*
X142471142Y-68688427D01*
X142471142Y-68688427D02*
X142471142Y-68116999D01*
X143042571Y-83708570D02*
X143042571Y-83308570D01*
X143671142Y-83137142D02*
X143671142Y-83708570D01*
X143671142Y-83708570D02*
X142471142Y-83708570D01*
X142471142Y-83708570D02*
X142471142Y-83137142D01*
X143214000Y-81708570D02*
X143214000Y-80794285D01*
X143042571Y-78908570D02*
X143042571Y-79308570D01*
X143671142Y-79308570D02*
X142471142Y-79308570D01*
X142471142Y-79308570D02*
X142471142Y-78737142D01*
D10*
X142602390Y-130346190D02*
X142564295Y-130422380D01*
X142564295Y-130422380D02*
X142564295Y-130536666D01*
X142564295Y-130536666D02*
X142602390Y-130650952D01*
X142602390Y-130650952D02*
X142678580Y-130727142D01*
X142678580Y-130727142D02*
X142754771Y-130765237D01*
X142754771Y-130765237D02*
X142907152Y-130803333D01*
X142907152Y-130803333D02*
X143021438Y-130803333D01*
X143021438Y-130803333D02*
X143173819Y-130765237D01*
X143173819Y-130765237D02*
X143250009Y-130727142D01*
X143250009Y-130727142D02*
X143326200Y-130650952D01*
X143326200Y-130650952D02*
X143364295Y-130536666D01*
X143364295Y-130536666D02*
X143364295Y-130460475D01*
X143364295Y-130460475D02*
X143326200Y-130346190D01*
X143326200Y-130346190D02*
X143288104Y-130308094D01*
X143288104Y-130308094D02*
X143021438Y-130308094D01*
X143021438Y-130308094D02*
X143021438Y-130460475D01*
X143364295Y-129965237D02*
X142564295Y-129965237D01*
X142564295Y-129965237D02*
X143364295Y-129508094D01*
X143364295Y-129508094D02*
X142564295Y-129508094D01*
X143364295Y-129127142D02*
X142564295Y-129127142D01*
X142564295Y-129127142D02*
X142564295Y-128936666D01*
X142564295Y-128936666D02*
X142602390Y-128822380D01*
X142602390Y-128822380D02*
X142678580Y-128746190D01*
X142678580Y-128746190D02*
X142754771Y-128708095D01*
X142754771Y-128708095D02*
X142907152Y-128669999D01*
X142907152Y-128669999D02*
X143021438Y-128669999D01*
X143021438Y-128669999D02*
X143173819Y-128708095D01*
X143173819Y-128708095D02*
X143250009Y-128746190D01*
X143250009Y-128746190D02*
X143326200Y-128822380D01*
X143326200Y-128822380D02*
X143364295Y-128936666D01*
X143364295Y-128936666D02*
X143364295Y-129127142D01*
X142945247Y-127450952D02*
X142983342Y-127336666D01*
X142983342Y-127336666D02*
X143021438Y-127298571D01*
X143021438Y-127298571D02*
X143097628Y-127260475D01*
X143097628Y-127260475D02*
X143211914Y-127260475D01*
X143211914Y-127260475D02*
X143288104Y-127298571D01*
X143288104Y-127298571D02*
X143326200Y-127336666D01*
X143326200Y-127336666D02*
X143364295Y-127412856D01*
X143364295Y-127412856D02*
X143364295Y-127717618D01*
X143364295Y-127717618D02*
X142564295Y-127717618D01*
X142564295Y-127717618D02*
X142564295Y-127450952D01*
X142564295Y-127450952D02*
X142602390Y-127374761D01*
X142602390Y-127374761D02*
X142640485Y-127336666D01*
X142640485Y-127336666D02*
X142716676Y-127298571D01*
X142716676Y-127298571D02*
X142792866Y-127298571D01*
X142792866Y-127298571D02*
X142869057Y-127336666D01*
X142869057Y-127336666D02*
X142907152Y-127374761D01*
X142907152Y-127374761D02*
X142945247Y-127450952D01*
X142945247Y-127450952D02*
X142945247Y-127717618D01*
X142564295Y-126765237D02*
X142564295Y-126689047D01*
X142564295Y-126689047D02*
X142602390Y-126612856D01*
X142602390Y-126612856D02*
X142640485Y-126574761D01*
X142640485Y-126574761D02*
X142716676Y-126536666D01*
X142716676Y-126536666D02*
X142869057Y-126498571D01*
X142869057Y-126498571D02*
X143059533Y-126498571D01*
X143059533Y-126498571D02*
X143211914Y-126536666D01*
X143211914Y-126536666D02*
X143288104Y-126574761D01*
X143288104Y-126574761D02*
X143326200Y-126612856D01*
X143326200Y-126612856D02*
X143364295Y-126689047D01*
X143364295Y-126689047D02*
X143364295Y-126765237D01*
X143364295Y-126765237D02*
X143326200Y-126841428D01*
X143326200Y-126841428D02*
X143288104Y-126879523D01*
X143288104Y-126879523D02*
X143211914Y-126917618D01*
X143211914Y-126917618D02*
X143059533Y-126955714D01*
X143059533Y-126955714D02*
X142869057Y-126955714D01*
X142869057Y-126955714D02*
X142716676Y-126917618D01*
X142716676Y-126917618D02*
X142640485Y-126879523D01*
X142640485Y-126879523D02*
X142602390Y-126841428D01*
X142602390Y-126841428D02*
X142564295Y-126765237D01*
X143364295Y-125736666D02*
X143364295Y-126193809D01*
X143364295Y-125965237D02*
X142564295Y-125965237D01*
X142564295Y-125965237D02*
X142678580Y-126041428D01*
X142678580Y-126041428D02*
X142754771Y-126117618D01*
X142754771Y-126117618D02*
X142792866Y-126193809D01*
D16*
X143556857Y-91801714D02*
X143614000Y-91858857D01*
X143614000Y-91858857D02*
X143671142Y-92030285D01*
X143671142Y-92030285D02*
X143671142Y-92144571D01*
X143671142Y-92144571D02*
X143614000Y-92316000D01*
X143614000Y-92316000D02*
X143499714Y-92430285D01*
X143499714Y-92430285D02*
X143385428Y-92487428D01*
X143385428Y-92487428D02*
X143156857Y-92544571D01*
X143156857Y-92544571D02*
X142985428Y-92544571D01*
X142985428Y-92544571D02*
X142756857Y-92487428D01*
X142756857Y-92487428D02*
X142642571Y-92430285D01*
X142642571Y-92430285D02*
X142528285Y-92316000D01*
X142528285Y-92316000D02*
X142471142Y-92144571D01*
X142471142Y-92144571D02*
X142471142Y-92030285D01*
X142471142Y-92030285D02*
X142528285Y-91858857D01*
X142528285Y-91858857D02*
X142585428Y-91801714D01*
X143214000Y-90373142D02*
X143214000Y-89458857D01*
X143671142Y-87973142D02*
X142471142Y-87973142D01*
X142471142Y-87973142D02*
X142471142Y-87687428D01*
X142471142Y-87687428D02*
X142528285Y-87515999D01*
X142528285Y-87515999D02*
X142642571Y-87401714D01*
X142642571Y-87401714D02*
X142756857Y-87344571D01*
X142756857Y-87344571D02*
X142985428Y-87287428D01*
X142985428Y-87287428D02*
X143156857Y-87287428D01*
X143156857Y-87287428D02*
X143385428Y-87344571D01*
X143385428Y-87344571D02*
X143499714Y-87401714D01*
X143499714Y-87401714D02*
X143614000Y-87515999D01*
X143614000Y-87515999D02*
X143671142Y-87687428D01*
X143671142Y-87687428D02*
X143671142Y-87973142D01*
D10*
X142602390Y-124377190D02*
X142564295Y-124453380D01*
X142564295Y-124453380D02*
X142564295Y-124567666D01*
X142564295Y-124567666D02*
X142602390Y-124681952D01*
X142602390Y-124681952D02*
X142678580Y-124758142D01*
X142678580Y-124758142D02*
X142754771Y-124796237D01*
X142754771Y-124796237D02*
X142907152Y-124834333D01*
X142907152Y-124834333D02*
X143021438Y-124834333D01*
X143021438Y-124834333D02*
X143173819Y-124796237D01*
X143173819Y-124796237D02*
X143250009Y-124758142D01*
X143250009Y-124758142D02*
X143326200Y-124681952D01*
X143326200Y-124681952D02*
X143364295Y-124567666D01*
X143364295Y-124567666D02*
X143364295Y-124491475D01*
X143364295Y-124491475D02*
X143326200Y-124377190D01*
X143326200Y-124377190D02*
X143288104Y-124339094D01*
X143288104Y-124339094D02*
X143021438Y-124339094D01*
X143021438Y-124339094D02*
X143021438Y-124491475D01*
X143364295Y-123996237D02*
X142564295Y-123996237D01*
X142564295Y-123996237D02*
X143364295Y-123539094D01*
X143364295Y-123539094D02*
X142564295Y-123539094D01*
X143364295Y-123158142D02*
X142564295Y-123158142D01*
X142564295Y-123158142D02*
X142564295Y-122967666D01*
X142564295Y-122967666D02*
X142602390Y-122853380D01*
X142602390Y-122853380D02*
X142678580Y-122777190D01*
X142678580Y-122777190D02*
X142754771Y-122739095D01*
X142754771Y-122739095D02*
X142907152Y-122700999D01*
X142907152Y-122700999D02*
X143021438Y-122700999D01*
X143021438Y-122700999D02*
X143173819Y-122739095D01*
X143173819Y-122739095D02*
X143250009Y-122777190D01*
X143250009Y-122777190D02*
X143326200Y-122853380D01*
X143326200Y-122853380D02*
X143364295Y-122967666D01*
X143364295Y-122967666D02*
X143364295Y-123158142D01*
X142945247Y-121481952D02*
X142983342Y-121367666D01*
X142983342Y-121367666D02*
X143021438Y-121329571D01*
X143021438Y-121329571D02*
X143097628Y-121291475D01*
X143097628Y-121291475D02*
X143211914Y-121291475D01*
X143211914Y-121291475D02*
X143288104Y-121329571D01*
X143288104Y-121329571D02*
X143326200Y-121367666D01*
X143326200Y-121367666D02*
X143364295Y-121443856D01*
X143364295Y-121443856D02*
X143364295Y-121748618D01*
X143364295Y-121748618D02*
X142564295Y-121748618D01*
X142564295Y-121748618D02*
X142564295Y-121481952D01*
X142564295Y-121481952D02*
X142602390Y-121405761D01*
X142602390Y-121405761D02*
X142640485Y-121367666D01*
X142640485Y-121367666D02*
X142716676Y-121329571D01*
X142716676Y-121329571D02*
X142792866Y-121329571D01*
X142792866Y-121329571D02*
X142869057Y-121367666D01*
X142869057Y-121367666D02*
X142907152Y-121405761D01*
X142907152Y-121405761D02*
X142945247Y-121481952D01*
X142945247Y-121481952D02*
X142945247Y-121748618D01*
X142564295Y-120796237D02*
X142564295Y-120720047D01*
X142564295Y-120720047D02*
X142602390Y-120643856D01*
X142602390Y-120643856D02*
X142640485Y-120605761D01*
X142640485Y-120605761D02*
X142716676Y-120567666D01*
X142716676Y-120567666D02*
X142869057Y-120529571D01*
X142869057Y-120529571D02*
X143059533Y-120529571D01*
X143059533Y-120529571D02*
X143211914Y-120567666D01*
X143211914Y-120567666D02*
X143288104Y-120605761D01*
X143288104Y-120605761D02*
X143326200Y-120643856D01*
X143326200Y-120643856D02*
X143364295Y-120720047D01*
X143364295Y-120720047D02*
X143364295Y-120796237D01*
X143364295Y-120796237D02*
X143326200Y-120872428D01*
X143326200Y-120872428D02*
X143288104Y-120910523D01*
X143288104Y-120910523D02*
X143211914Y-120948618D01*
X143211914Y-120948618D02*
X143059533Y-120986714D01*
X143059533Y-120986714D02*
X142869057Y-120986714D01*
X142869057Y-120986714D02*
X142716676Y-120948618D01*
X142716676Y-120948618D02*
X142640485Y-120910523D01*
X142640485Y-120910523D02*
X142602390Y-120872428D01*
X142602390Y-120872428D02*
X142564295Y-120796237D01*
X142640485Y-120224809D02*
X142602390Y-120186713D01*
X142602390Y-120186713D02*
X142564295Y-120110523D01*
X142564295Y-120110523D02*
X142564295Y-119920047D01*
X142564295Y-119920047D02*
X142602390Y-119843856D01*
X142602390Y-119843856D02*
X142640485Y-119805761D01*
X142640485Y-119805761D02*
X142716676Y-119767666D01*
X142716676Y-119767666D02*
X142792866Y-119767666D01*
X142792866Y-119767666D02*
X142907152Y-119805761D01*
X142907152Y-119805761D02*
X143364295Y-120262904D01*
X143364295Y-120262904D02*
X143364295Y-119767666D01*
D16*
X143328285Y-101221856D02*
X143328285Y-100650428D01*
X143671142Y-101336142D02*
X142471142Y-100936142D01*
X142471142Y-100936142D02*
X143671142Y-100536142D01*
X143214000Y-99221856D02*
X143214000Y-98307571D01*
X143042571Y-96421856D02*
X143099714Y-96250428D01*
X143099714Y-96250428D02*
X143156857Y-96193285D01*
X143156857Y-96193285D02*
X143271142Y-96136142D01*
X143271142Y-96136142D02*
X143442571Y-96136142D01*
X143442571Y-96136142D02*
X143556857Y-96193285D01*
X143556857Y-96193285D02*
X143614000Y-96250428D01*
X143614000Y-96250428D02*
X143671142Y-96364713D01*
X143671142Y-96364713D02*
X143671142Y-96821856D01*
X143671142Y-96821856D02*
X142471142Y-96821856D01*
X142471142Y-96821856D02*
X142471142Y-96421856D01*
X142471142Y-96421856D02*
X142528285Y-96307571D01*
X142528285Y-96307571D02*
X142585428Y-96250428D01*
X142585428Y-96250428D02*
X142699714Y-96193285D01*
X142699714Y-96193285D02*
X142814000Y-96193285D01*
X142814000Y-96193285D02*
X142928285Y-96250428D01*
X142928285Y-96250428D02*
X142985428Y-96307571D01*
X142985428Y-96307571D02*
X143042571Y-96421856D01*
X143042571Y-96421856D02*
X143042571Y-96821856D01*
D17*
X131120000Y-124460000D02*
G75*
G02*
X118920000Y-124460000I-6100000J0D01*
G01*
X118920000Y-124460000D02*
G75*
G02*
X131120000Y-124460000I6100000J0D01*
G01*
X117415000Y-73727000D02*
X118745000Y-73727000D01*
X117415000Y-75057000D02*
X117415000Y-73727000D01*
X120015000Y-73727000D02*
X130235000Y-73727000D01*
X120015000Y-76387000D02*
X120015000Y-73727000D01*
X120015000Y-76387000D02*
X130235000Y-76387000D01*
X130235000Y-76387000D02*
X130235000Y-73727000D01*
X117415000Y-77283000D02*
X118745000Y-77283000D01*
X117415000Y-78613000D02*
X117415000Y-77283000D01*
X120015000Y-77283000D02*
X130235000Y-77283000D01*
X120015000Y-79943000D02*
X120015000Y-77283000D01*
X120015000Y-79943000D02*
X130235000Y-79943000D01*
X130235000Y-79943000D02*
X130235000Y-77283000D01*
X109922000Y-79121000D02*
X109922000Y-73981000D01*
X109922000Y-81721000D02*
X109922000Y-80391000D01*
X111252000Y-81721000D02*
X109922000Y-81721000D01*
X112582000Y-73981000D02*
X109922000Y-73981000D01*
X112582000Y-79121000D02*
X109922000Y-79121000D01*
X112582000Y-79121000D02*
X112582000Y-73981000D01*
X112462000Y-79121000D02*
X112462000Y-73981000D01*
X112462000Y-81721000D02*
X112462000Y-80391000D01*
X113792000Y-81721000D02*
X112462000Y-81721000D01*
X115122000Y-73981000D02*
X112462000Y-73981000D01*
X115122000Y-79121000D02*
X112462000Y-79121000D01*
X115122000Y-79121000D02*
X115122000Y-73981000D01*
X116018000Y-68774000D02*
X116018000Y-71434000D01*
X128778000Y-68774000D02*
X116018000Y-68774000D01*
X128778000Y-68774000D02*
X128778000Y-71434000D01*
X128778000Y-71434000D02*
X116018000Y-71434000D01*
X131378000Y-70104000D02*
X131378000Y-71434000D01*
X131378000Y-71434000D02*
X130048000Y-71434000D01*
X119193000Y-84455000D02*
X119193000Y-89595000D01*
X119193000Y-84455000D02*
X121853000Y-84455000D01*
X119193000Y-89595000D02*
X121853000Y-89595000D01*
X120523000Y-81855000D02*
X121853000Y-81855000D01*
X121853000Y-81855000D02*
X121853000Y-83185000D01*
X121853000Y-84455000D02*
X121853000Y-89595000D01*
X110661000Y-111455000D02*
X110661000Y-112705000D01*
X110661000Y-112705000D02*
X111911000Y-112705000D01*
X110951000Y-104795000D02*
X110951000Y-112415000D01*
X110951000Y-112415000D02*
X116921000Y-112415000D01*
X110961000Y-104805000D02*
X110961000Y-106605000D01*
X110961000Y-106605000D02*
X111711000Y-106605000D01*
X110961000Y-108105000D02*
X110961000Y-109105000D01*
X110961000Y-109105000D02*
X111711000Y-109105000D01*
X110961000Y-110605000D02*
X110961000Y-112405000D01*
X110961000Y-112405000D02*
X111711000Y-112405000D01*
X111711000Y-104805000D02*
X110961000Y-104805000D01*
X111711000Y-106605000D02*
X111711000Y-104805000D01*
X111711000Y-108105000D02*
X110961000Y-108105000D01*
X111711000Y-109105000D02*
X111711000Y-108105000D01*
X111711000Y-110605000D02*
X110961000Y-110605000D01*
X111711000Y-112405000D02*
X111711000Y-110605000D01*
X113211000Y-104805000D02*
X113211000Y-105555000D01*
X113211000Y-105555000D02*
X116161000Y-105555000D01*
X113211000Y-111655000D02*
X116161000Y-111655000D01*
X113211000Y-112405000D02*
X113211000Y-111655000D01*
X116161000Y-105555000D02*
X116161000Y-108605000D01*
X116161000Y-111655000D02*
X116161000Y-108605000D01*
X116921000Y-104795000D02*
X110951000Y-104795000D01*
X116921000Y-112415000D02*
X116921000Y-104795000D01*
X110661000Y-120091000D02*
X110661000Y-121341000D01*
X110661000Y-121341000D02*
X111911000Y-121341000D01*
X110951000Y-113431000D02*
X110951000Y-121051000D01*
X110951000Y-121051000D02*
X116921000Y-121051000D01*
X110961000Y-113441000D02*
X110961000Y-115241000D01*
X110961000Y-115241000D02*
X111711000Y-115241000D01*
X110961000Y-116741000D02*
X110961000Y-117741000D01*
X110961000Y-117741000D02*
X111711000Y-117741000D01*
X110961000Y-119241000D02*
X110961000Y-121041000D01*
X110961000Y-121041000D02*
X111711000Y-121041000D01*
X111711000Y-113441000D02*
X110961000Y-113441000D01*
X111711000Y-115241000D02*
X111711000Y-113441000D01*
X111711000Y-116741000D02*
X110961000Y-116741000D01*
X111711000Y-117741000D02*
X111711000Y-116741000D01*
X111711000Y-119241000D02*
X110961000Y-119241000D01*
X111711000Y-121041000D02*
X111711000Y-119241000D01*
X113211000Y-113441000D02*
X113211000Y-114191000D01*
X113211000Y-114191000D02*
X116161000Y-114191000D01*
X113211000Y-120291000D02*
X116161000Y-120291000D01*
X113211000Y-121041000D02*
X113211000Y-120291000D01*
X116161000Y-114191000D02*
X116161000Y-117241000D01*
X116161000Y-120291000D02*
X116161000Y-117241000D01*
X116921000Y-113431000D02*
X110951000Y-113431000D01*
X116921000Y-121051000D02*
X116921000Y-113431000D01*
X110661000Y-128727000D02*
X110661000Y-129977000D01*
X110661000Y-129977000D02*
X111911000Y-129977000D01*
X110951000Y-122067000D02*
X110951000Y-129687000D01*
X110951000Y-129687000D02*
X116921000Y-129687000D01*
X110961000Y-122077000D02*
X110961000Y-123877000D01*
X110961000Y-123877000D02*
X111711000Y-123877000D01*
X110961000Y-125377000D02*
X110961000Y-126377000D01*
X110961000Y-126377000D02*
X111711000Y-126377000D01*
X110961000Y-127877000D02*
X110961000Y-129677000D01*
X110961000Y-129677000D02*
X111711000Y-129677000D01*
X111711000Y-122077000D02*
X110961000Y-122077000D01*
X111711000Y-123877000D02*
X111711000Y-122077000D01*
X111711000Y-125377000D02*
X110961000Y-125377000D01*
X111711000Y-126377000D02*
X111711000Y-125377000D01*
X111711000Y-127877000D02*
X110961000Y-127877000D01*
X111711000Y-129677000D02*
X111711000Y-127877000D01*
X113211000Y-122077000D02*
X113211000Y-122827000D01*
X113211000Y-122827000D02*
X116161000Y-122827000D01*
X113211000Y-128927000D02*
X116161000Y-128927000D01*
X113211000Y-129677000D02*
X113211000Y-128927000D01*
X116161000Y-122827000D02*
X116161000Y-125877000D01*
X116161000Y-128927000D02*
X116161000Y-125877000D01*
X116921000Y-122067000D02*
X110951000Y-122067000D01*
X116921000Y-129687000D02*
X116921000Y-122067000D01*
X123598000Y-84868000D02*
X123598000Y-91408000D01*
X123598000Y-91408000D02*
X126338000Y-91408000D01*
X124968000Y-84098000D02*
X124968000Y-84868000D01*
X124968000Y-92178000D02*
X124968000Y-91408000D01*
X126338000Y-84868000D02*
X123598000Y-84868000D01*
X126338000Y-91408000D02*
X126338000Y-84868000D01*
X128083000Y-86868000D02*
X128083000Y-94548000D01*
X128083000Y-86868000D02*
X130743000Y-86868000D01*
X128083000Y-94548000D02*
X130743000Y-94548000D01*
X129413000Y-84268000D02*
X130743000Y-84268000D01*
X130743000Y-84268000D02*
X130743000Y-85598000D01*
X130743000Y-86868000D02*
X130743000Y-94548000D01*
D10*
X109799000Y-99839000D02*
X118099000Y-99839000D01*
X109799000Y-100314000D02*
X109799000Y-99839000D01*
X109799000Y-102564000D02*
X109799000Y-103039000D01*
X109799000Y-103039000D02*
X118099000Y-103039000D01*
X111649000Y-99539000D02*
X113649000Y-99539000D01*
X118099000Y-99839000D02*
X118099000Y-100314000D01*
X118099000Y-103039000D02*
X118099000Y-102564000D01*
D17*
X119193000Y-94615000D02*
X119193000Y-97215000D01*
X119193000Y-94615000D02*
X121853000Y-94615000D01*
X119193000Y-97215000D02*
X121853000Y-97215000D01*
X120523000Y-92015000D02*
X121853000Y-92015000D01*
X121853000Y-92015000D02*
X121853000Y-93345000D01*
X121853000Y-94615000D02*
X121853000Y-97215000D01*
X139259000Y-105918000D02*
X139259000Y-118678000D01*
X139259000Y-105918000D02*
X141919000Y-105918000D01*
X139259000Y-118678000D02*
X141919000Y-118678000D01*
X140589000Y-103318000D02*
X141919000Y-103318000D01*
X141919000Y-103318000D02*
X141919000Y-104648000D01*
X141919000Y-105918000D02*
X141919000Y-118678000D01*
X139259000Y-71247000D02*
X139259000Y-76387000D01*
X139259000Y-71247000D02*
X141919000Y-71247000D01*
X139259000Y-76387000D02*
X141919000Y-76387000D01*
X140589000Y-68647000D02*
X141919000Y-68647000D01*
X141919000Y-68647000D02*
X141919000Y-69977000D01*
X141919000Y-71247000D02*
X141919000Y-76387000D01*
X139259000Y-79883000D02*
X139259000Y-85023000D01*
X139259000Y-79883000D02*
X141919000Y-79883000D01*
X139259000Y-85023000D02*
X141919000Y-85023000D01*
X140589000Y-77283000D02*
X141919000Y-77283000D01*
X141919000Y-77283000D02*
X141919000Y-78613000D01*
X141919000Y-79883000D02*
X141919000Y-85023000D01*
X139259000Y-128270000D02*
X139259000Y-130870000D01*
X139259000Y-128270000D02*
X141919000Y-128270000D01*
X139259000Y-130870000D02*
X141919000Y-130870000D01*
X140589000Y-125670000D02*
X141919000Y-125670000D01*
X141919000Y-125670000D02*
X141919000Y-127000000D01*
X141919000Y-128270000D02*
X141919000Y-130870000D01*
X139259000Y-88570000D02*
X139259000Y-93710000D01*
X139259000Y-88570000D02*
X141919000Y-88570000D01*
X139259000Y-93710000D02*
X141919000Y-93710000D01*
X140589000Y-85970000D02*
X141919000Y-85970000D01*
X141919000Y-85970000D02*
X141919000Y-87300000D01*
X141919000Y-88570000D02*
X141919000Y-93710000D01*
X139259000Y-122174000D02*
X139259000Y-124774000D01*
X139259000Y-122174000D02*
X141919000Y-122174000D01*
X139259000Y-124774000D02*
X141919000Y-124774000D01*
X140589000Y-119574000D02*
X141919000Y-119574000D01*
X141919000Y-119574000D02*
X141919000Y-120904000D01*
X141919000Y-122174000D02*
X141919000Y-124774000D01*
X139259000Y-97282000D02*
X139259000Y-102422000D01*
X139259000Y-97282000D02*
X141919000Y-97282000D01*
X139259000Y-102422000D02*
X141919000Y-102422000D01*
X140589000Y-94682000D02*
X141919000Y-94682000D01*
X141919000Y-94682000D02*
X141919000Y-96012000D01*
X141919000Y-97282000D02*
X141919000Y-102422000D01*
X122622000Y-117408000D02*
X122622000Y-116078000D01*
X123952000Y-117408000D02*
X122622000Y-117408000D01*
X125222000Y-114748000D02*
X130362000Y-114748000D01*
X125222000Y-117408000D02*
X125222000Y-114748000D01*
X125222000Y-117408000D02*
X130362000Y-117408000D01*
X130362000Y-117408000D02*
X130362000Y-114748000D01*
X121011000Y-102341000D02*
X121011000Y-105431000D01*
X121011000Y-102341170D02*
G75*
G02*
X126561000Y-103886462I2560000J-1544830D01*
G01*
X126561000Y-103885538D02*
G75*
G02*
X121011000Y-105430830I-2990000J-462D01*
G01*
X126071000Y-103886000D02*
G75*
G02*
X121071000Y-103886000I-2500000J0D01*
G01*
X121071000Y-103886000D02*
G75*
G02*
X126071000Y-103886000I2500000J0D01*
G01*
X127956000Y-99695000D02*
X127956000Y-112455000D01*
X127956000Y-99695000D02*
X130616000Y-99695000D01*
X127956000Y-112455000D02*
X130616000Y-112455000D01*
X129286000Y-97095000D02*
X130616000Y-97095000D01*
X130616000Y-97095000D02*
X130616000Y-98425000D01*
X130616000Y-99695000D02*
X130616000Y-112455000D01*
%LPC*%
D18*
X128270000Y-124460000D03*
D19*
X121770000Y-124460000D03*
D20*
X118745000Y-75057000D03*
D21*
X121285000Y-75057000D03*
X123825000Y-75057000D03*
X126365000Y-75057000D03*
X128905000Y-75057000D03*
D20*
X118745000Y-78613000D03*
D21*
X121285000Y-78613000D03*
X123825000Y-78613000D03*
X126365000Y-78613000D03*
X128905000Y-78613000D03*
D20*
X111252000Y-80391000D03*
D21*
X111252000Y-77851000D03*
X111252000Y-75311000D03*
D20*
X113792000Y-80391000D03*
D21*
X113792000Y-77851000D03*
X113792000Y-75311000D03*
D20*
X130048000Y-70104000D03*
D21*
X127508000Y-70104000D03*
X124968000Y-70104000D03*
X122428000Y-70104000D03*
X119888000Y-70104000D03*
X117348000Y-70104000D03*
D20*
X120523000Y-83185000D03*
D21*
X120523000Y-85725000D03*
X120523000Y-88265000D03*
D22*
X113411000Y-109855000D03*
D23*
X113411000Y-107355000D03*
D22*
X113411000Y-118491000D03*
D23*
X113411000Y-115991000D03*
D22*
X113411000Y-127127000D03*
D23*
X113411000Y-124627000D03*
D19*
X124968000Y-83058000D03*
D24*
X124968000Y-93218000D03*
D20*
X129413000Y-85598000D03*
D21*
X129413000Y-88138000D03*
X129413000Y-90678000D03*
X129413000Y-93218000D03*
D25*
X112649000Y-101219000D03*
D26*
X113299000Y-102219000D03*
X113949000Y-101219000D03*
X114599000Y-102219000D03*
X115249000Y-101219000D03*
D27*
X110374000Y-101439000D03*
X117524000Y-101439000D03*
D28*
X135636000Y-70485000D03*
X135636000Y-128485000D03*
D20*
X120523000Y-93345000D03*
D21*
X120523000Y-95885000D03*
D20*
X140589000Y-104648000D03*
D21*
X140589000Y-107188000D03*
X140589000Y-109728000D03*
X140589000Y-112268000D03*
X140589000Y-114808000D03*
X140589000Y-117348000D03*
D20*
X140589000Y-69977000D03*
D21*
X140589000Y-72517000D03*
X140589000Y-75057000D03*
D20*
X140589000Y-78613000D03*
D21*
X140589000Y-81153000D03*
X140589000Y-83693000D03*
D20*
X140589000Y-127000000D03*
D21*
X140589000Y-129540000D03*
D20*
X140589000Y-87300000D03*
D21*
X140589000Y-89840000D03*
X140589000Y-92380000D03*
D20*
X140589000Y-120904000D03*
D21*
X140589000Y-123444000D03*
D20*
X140589000Y-96012000D03*
D21*
X140589000Y-98552000D03*
X140589000Y-101092000D03*
D20*
X123952000Y-116078000D03*
D21*
X126492000Y-116078000D03*
X129032000Y-116078000D03*
D29*
X122301000Y-103886000D03*
D30*
X124841000Y-103886000D03*
D20*
X129286000Y-98425000D03*
D21*
X129286000Y-100965000D03*
X129286000Y-103505000D03*
X129286000Y-106045000D03*
X129286000Y-108585000D03*
X129286000Y-111125000D03*
D20*
X134366000Y-75438000D03*
D21*
X136906000Y-75438000D03*
X134366000Y-77978000D03*
X136906000Y-77978000D03*
X134366000Y-80518000D03*
X136906000Y-80518000D03*
X134366000Y-83058000D03*
X136906000Y-83058000D03*
X134366000Y-85598000D03*
X136906000Y-85598000D03*
X134366000Y-88138000D03*
X136906000Y-88138000D03*
X134366000Y-90678000D03*
X136906000Y-90678000D03*
X134366000Y-93218000D03*
X136906000Y-93218000D03*
X134366000Y-95758000D03*
X136906000Y-95758000D03*
X134366000Y-98298000D03*
X136906000Y-98298000D03*
X134366000Y-100838000D03*
X136906000Y-100838000D03*
X134366000Y-103378000D03*
X136906000Y-103378000D03*
X134366000Y-105918000D03*
X136906000Y-105918000D03*
X134366000Y-108458000D03*
X136906000Y-108458000D03*
X134366000Y-110998000D03*
X136906000Y-110998000D03*
X134366000Y-113538000D03*
X136906000Y-113538000D03*
X134366000Y-116078000D03*
X136906000Y-116078000D03*
X134366000Y-118618000D03*
X136906000Y-118618000D03*
X134366000Y-121158000D03*
X136906000Y-121158000D03*
X134366000Y-123698000D03*
X136906000Y-123698000D03*
%LPD*%
M02*
